<?xml version="1.0" encoding="UTF-8"?>
<svg id="Layer_1" xmlns="http://www.w3.org/2000/svg" version="1.1" viewBox="0 0 100 100">
  <!-- Generator: Adobe Illustrator 29.5.0, SVG Export Plug-In . SVG Version: 2.1.0 Build 137)  -->
  <defs>
    <style>
      .st0 {
        fill: #adfefe;
      }

      .st1 {
        fill: #10a8df;
      }

      .st2 {
        fill: #08577b;
      }

      .st3 {
        fill: #054c70;
      }

      .st4 {
        fill: #012448;
      }

      .st5 {
        fill: #c3fbfc;
      }

      .st6 {
        fill: #e0fdfd;
      }

      .st7 {
        fill: #15d6fe;
      }

      .st8 {
        fill: #093656;
      }

      .st9 {
        fill: #dffdfe;
      }

      .st10 {
        fill: #01142b;
      }

      .st11 {
        fill: #45f2fe;
      }

      .st12 {
        fill: #054c6f;
      }

      .st13 {
        fill: #cafefe;
      }

      .st14 {
        fill: #7ffdfe;
      }

      .st15 {
        fill: #021f42;
      }

      .st16 {
        fill: #012346;
      }

      .st17 {
        fill: #0b6388;
      }

      .st18 {
        fill: #81fdfe;
      }

      .st19 {
        fill: #c7fefe;
      }

      .st20 {
        fill: #cefefe;
      }

      .st21 {
        fill: #dcfcfd;
      }

      .st22 {
        fill: #7dfcfe;
      }

      .st23 {
        fill: #054b6f;
      }

      .st24 {
        fill: #2ce5fe;
      }

      .st25 {
        fill: #0fa4da;
      }

      .st26 {
        fill: #f8fefe;
      }

      .st27 {
        fill: #022244;
      }

      .st28 {
        fill: #17c4f5;
      }

      .st29 {
        fill: #e2fdfe;
      }

      .st30 {
        fill: #49f3fe;
      }

      .st31 {
        fill: #012245;
      }

      .st32 {
        fill: #79fbfe;
      }

      .st33 {
        fill: #073656;
      }

      .st34 {
        fill: #7bfbfe;
      }

      .st35 {
        fill: #0fb4ea;
      }

      .st36 {
        fill: #c4fdfd;
      }

      .st37 {
        fill: #a9fbfc;
      }

      .st38 {
        fill: #80fdfe;
      }

      .st39 {
        fill: #acfefe;
      }

      .st40 {
        fill: #0483bf;
      }

      .st41 {
        fill: #bafefe;
      }

      .st42 {
        fill: #0b8bc4;
      }

      .st43 {
        fill: #093352;
      }

      .st44 {
        fill: #77f9fd;
      }

      .st45 {
        fill: #dafcfe;
      }

      .st46 {
        fill: #b7fafd;
      }

      .st47 {
        fill: #0b6288;
      }

      .st48 {
        fill: #0893ce;
      }

      .st49 {
        fill: #14d1f9;
      }

      .st50 {
        fill: #0482bf;
      }

      .st51 {
        fill: #fefefe;
      }

      .st52 {
        fill: #0278b4;
      }

      .st53 {
        fill: #0fa7de;
      }

      .st54 {
        fill: #2ce6fd;
      }

      .st55 {
        fill: #79fafe;
      }

      .st56 {
        fill: #01132b;
      }

      .st57 {
        fill: #2ae2fd;
      }

      .st58 {
        fill: #0894ce;
      }

      .st59 {
        fill: #022144;
      }
    </style>
  </defs>
  <path class="st50" d="M75.52,60.33c.31-.37.49.07.29.41-.42.6-.87,1.17-1.36,1.71-.22.07.4.76.44.78,1.29.24,3.45.72,4.53,1.43.17.11.24.19.1.38l.11.18-6.97,8.32c-.32.39-.94.08-.65-.33-.36-.17-.26-1.14,0-1.45-.08.3-.14.43-.47.51l-.16.72c-.92,2.09-1.59,4.23-2.02,6.45-.74,1.94-1.29,3.9-1.66,5.89.74.11.36.76.07,1.19-.3,1.56-.65.68-.66-.33l-.21-.25c-.04-.78-.27-1.52-.67-2.19-.48-.67-.83-1.36-1.03-2.07l-.28-.08-.67-1.1c0,.39-.11.62-.35.68h-.1c-.39-.15-.78-.21-1.15-.18-.75.35-1.51.68-2.29.97-.89,0-1.68,0-2.53.22-1.64-.38-3.54.17-5,.97-.58.33-2.5.84-2.96.32-.16-.18-.22-1.14.1-1.2-.06-.3,1.44-.24,1.51-.2.08.04.12.12.14.2-.1-.4-.27-.74-.5-1.02l-.71.35c-.46.18-.85-.16-.34-.43.03-.1.07-.21.16-.26,1.75-.83,3.55-1.55,5.42-2.15,1.17-.44,2.25-1.01,3.25-1.7,1.69-.47,3.37-.94,5.06-1.4,3.55-5.1,7.24-10.09,11.08-14.96l.48-.36Z"/>
  <path class="st28" d="M79.53,65.04c-.12-.47.64-.33.74.08.3.9.84,1.45,1.61,1.97.81.03,1.14.57,1,1.62l.15-.06c.09.17.18.36.19.56.13,2.55-.11,4.67-.54,7.08.06.4.06,1.1-.37.75l-.77-4.59c-.37-1.62-.69-3.27-.93-4.94-.2-1.09-.78-.06-1.04.44-1.19,2.37-2.42,4.73-3.7,7.08-.74.35-1.57.51-2.49.48-.96.06-1.54.66-1.74,1.81-1.61,5.34-3.09,10.75-4.46,16.23-.34-.01-.37-.57-.37-.86-.74-3.89-1.86-7.7-2.91-11.52.11-.31.13-.64.2-.95.04-.16-.07-.17.2-.15.21.57.59,1.08.9,1.6.2.74.56,1.45,1.07,2.14.41.79.65,1.61.71,2.46l.13-.09c.22.13-.02,1,.25,1,.17,0,.15-.55.21-.69.12-.31.47-.56.35-1.01l-.4.3c0-.31-.02-.62.02-.93.24-1.62,1.17-3.84,1.63-5.48.22-.77.3-1.72.55-2.55.52-1.74,1.56-3.32,1.7-5.17l.2.4.4-.3v1.45s.21.34.25.35l.2-.1,7.06-8.42Z"/>
  <path class="st20" d="M44.97,96.1c-.47-1.13-1.04-2.39-1.41-3.55-.2-.63-.29-1.74-.56-2.25-.04-.08-.15-.19-.24-.21v1.3c-.09,0-.15-.09-.2-.15-1-1.15-1.6-4.11-2.81-5.1-1.15-.54-8.95-4.79-9.55-4.65-.16.04-.23.37-.29.51-.8,2.14-1.07,4.7-1.85,6.87-.07.19-.07.5-.33.42l-2.01-9.62c-1.1.34-2.13.06-3.14-.42-.49-.23-2.31-1.54-2.54-1.57s-.28.3-.33.45c-.96,2.69-1.08,6.15-1.91,8.91-.04.13,0,.31-.2.35-.64-2.85-1.15-5.72-1.67-8.6-.62-3.45-1.01-7.4-1.78-10.74-.27-1.18-1.14-2.58-1.92-3.5-.29-.06-.75,1.4-.92,1.67-.06.1.01.18-.22.13-.87-6.11-1.56-12.25-2.21-18.39,1.59-5.64,2.83-11.29,3.51-17.13,1.57-2.02,3.16-4.05,4.82-6,.61-.72,1.33-1.29,1.94-2.07,1.17-1.49,1.91-3.45,3.01-4.8,3.06-3.73,7-5.5,11.24-7.5,5.61-2.65,11.33-5.11,17.13-7.32,5.27,2.15,10.46,4.52,15.64,6.89,3.31,1.52,6.74,3.02,9.99,4.64,1.85.93,2.03.96,3.25,2.66,1.6,2.22,3.26,4.8,4.67,7.15,1.51,2.52,1.98,4.23,2.81,7,1.05,3.51,2.11,7.1,2.85,10.67-.62,4.26-1.82,8.43-2.57,12.65-.48,2.69-.84,5.42-1.3,8.12-1.03,6.02-1.89,12.08-3.14,18.05-.14.02-.14-.18-.17-.28-.1-.38-.15-.8-.21-1.19-.65-3.79-1.02-7.71-1.75-11.47-.06-.32-.09-1.08-.45-.86-.11.07-1.11,1.98-1.27,2.28-.63,1.18-1.17,2.43-1.8,3.61-.25.47-.89,1.81-1.2,2.11-.61.57-2.78.19-3.47.74-.51.41-1.7,4.82-1.97,5.75-1.19,4.12-2.19,8.3-3.28,12.45l-.15.1c-.01-.49-.46-1.02-.2-1.5l.3.8c1.39-5,2.49-10.17,4.08-15.1.2-.63.58-2,.93-2.48.58-.8,3.06-.35,3.67-.94,1.27-2.13,2.24-4.42,3.43-6.59.16-.3.99-2.06,1.4-1.26.35,1.77.59,3.56.92,5.34l.75,4.49c.08.02.15.05.15.09.15.74.23,1.5.32,2.25l2.31-14.09c.12-.56.28-1.11.48-1.64,0-.28,0-.56,0-.85s.03-.56.07-.83c.97-6.21,2.12-12.24,3.54-18.27l.2-.38c-.27-.17-.2-.7.1-.8l-.17-.21c-.02-1.25-.42-2.45-.84-3.62l.11-.27-.68-1.81c-.8-3.2-1.73-6.31-2.79-9.33l.07-.38-.28-.14c-1.76-3.2-3.77-6.25-6.05-9.15v-.33c.24.09-.12-.47-.29-.5-.23,0-.44-.16-.63-.48-.29-.14-.44-.32-.47-.52-.57-.26-1.14-.56-1.7-.9-.09.01-.17.03-.26.02-.28,0-2.95-1.31-3.41-1.58-.14-.08-.25-.21-.34-.35l-3.78-1.54c-5.75-2.65-11.52-5.24-17.32-7.77-6.27,2.41-12.49,5.19-18.5,8.02-4.68,2.2-9.26,4.67-11.35,9.59l-.76,1.12c-2.45,2.77-4.85,5.69-7.22,8.74-.58,4.36-1.2,8.77-2.55,12.97-.56,1.87-.97,3.4-.92,5.16.05,1.48.28,3.27.5,4.73,0,0,.04-.01.09-.04.07.18.14.36.2.54s.11.36.13.55c.47,3.32.87,6.72,1.25,9.91.15-.4.62-.97.93-.47l.32.13c.56.69,1.85,2.82,1.91,3.65l-.13.33c.48,1.28.79,2.61.94,4.01.64,4.16,1.39,8.56,2.17,12.52.18.04.24.17.18.38l1.69-7.76c.06-.11.13-.21.24-.26.24-.1,1.37.65,1.58.93l.27-.07c1.22.99,2.51,1.37,3.88,1.15l.26.13c.2-.15.31.05.35.25.52,2.57,1.04,5.16,1.54,7.73.03.17.16.55.24.66.09-.29.22-.56.38-.83.11-1.12.41-2.19.9-3.21-.05-.02-.09-.05-.11-.08-.12-.18.53-2.4.73-2.64.35-.42.7-.29.98.12.35-.1.74-.01,1.16.27,2.23.97,4.85,2.17,6.94,3.38,1.46.85,1.72,1.26,2.46,2.74l1.07,2.41c-.02-.36.25-.75.5-.39.14-.13.21-.1.2.1.15.19.29.4.37.63.5,1.57,1,3.1,1.55,4.65.08.23.09.48.09.73.03.13.03.16-.1.1Z"/>
  <path class="st1" d="M63.8,81.17c-1.04.15-1.89,1.36-2.7,2.06-.44.38-.94.7-1.4,1.05-2.39,1.01-4.85,1.85-7.39,2.51l-1.94.74-.18-.04c-1.07.59-.84-.49-.1-.6.1-.08.53-.51.1-.3-.16.13-.39.19-.68.18-1.04.49-1.91.49-3.01.21l-.62.2c-.5,0-.61-1.3-.29-1.59-.15-.82-.13-1.67.06-2.55-.09-.28-.03-1.47.12-1.58.25-.18,1.55-.15,1.82.11.04-.05.07-.1.12-.11.31-.06,2.12-.42,2.23-.38.06.02.11.05.16.09-.39.73.98-.12,1.15-.2.1.02.53.95.54,1.07,0,.08-.07.23-.14.23h-1.65c.03.98-.3,1.27.85,1.2,1.64-.1,2.16-.78,3.46-1.15.5-.14,2-.48,2.48-.53.35-.04.66.19,1.08.19s.65-.18,1-.21c.48-.04,1.02.06,1.49,0,1.07-.15,2.43-1.75,3.47-.59Z"/>
  <path class="st39" d="M59.69,84.27s.05.13-.06.21c-.15.1-.96.36-1.22.47-2.4.95-5.03,1.49-7.39,2.43-1.08.43-1.56.57-2,1.71-.89,2.33-1.45,4.92-2.33,7.29-.09.25-.61,1.72-.78,1.72-.52-.54-.67-1.33-.95-2l.1-.1.26.1.54,1.09c.96-2.3,1.74-4.67,2.33-7.1.16-.51.33-1,.54-1.49.31-.71.72-.96,1.43-1.12,1.8-.9,4.69-1.48,6.69-2.18.95-.33,1.86-.76,2.83-1.03Z"/>
  <path class="st48" d="M79.83,56.92l.16.19c-.25.89.52.87,1.15.66.86-.54,1.25-.51,2.19-.32.1.11-.17,2.62-.23,3.01-.06.41-.13.81-.29,1.2.37-.05.6.3.33.53l.2.11c.06.33.09,1.35-.2,1.49.26.1.43.35.5.75l.12.42c-.22,1.1-.42,2.2-.5,3.32l-.22.37-.2,1.1c-.11-.44-.07-2.04-.35-2.31-.15-.15-.43-.07-.65-.15-.17-.06-1.13-.88-1.25-1.05-.18-.26-.47-1.13-.66-1.25-.17-.11-.36.06-.4.06-.02,0-.12-.19-.29-.26-1.46-.57-2.91-1.26-4.5-1.37,0-.29-.63-.67-.61-.81.03-.2,1.16-1.39,1.37-1.74.06-.09.43-.61.02-.53-.16-.25.4-.99.7-.9l.12-.24c.48-.09.98-.11,1.52-.06.77-.6,1.29-.56,1.57.12.54-.78.3-1.28-.72-1.52-.47-.44.81-1.04,1.12-.8Z"/>
  <path class="st14" d="M76.02,54.12h.2l.18.29c.11,1.59.14,3.18.07,4.77l-.25.25c-.27.19-.47.63-.7.9-4.11,4.92-7.66,10.28-11.47,15.43-1.64.64-3.61.91-5.26,1.55-.48.19-.85.57-1.3.8-1.57.8-2.93,1.17-4.53,1.78-.94.36-1.98.99-2.88,1.28-.76.24-1.71.36-2.5.4-.44-.11-.06-.48.33-.39,1.57-.34,3.08-.9,4.54-1.66,1.75-.56,3.35-1.18,5-1.95,1.48-.7,1.81-1.79,2.24-3.35.19-.99.43-1.96.73-2.91.15-.13.22-.25.18-.34v-.22c.28-.1,1.83-.75,1.29-1.05-.89-.18-.88-.65-.29-1.24-.18-.22.07-.45.3-.3.69-.71,1.45-1.38,2.3-2.01h.31s.16.21.16.21l-.11,1.69c-.88,2.16-1.55,4.44-2.01,6.84-.4.69-.24.7.5.68.62-.02.98-.21,1.16-.81l.67-.8c3.48-5.06,7.04-10.08,10.93-14.84l.1-.34c-.19-1.5-.2-3-.03-4.5l.15-.16Z"/>
  <path class="st57" d="M67.11,86.18c.03.78.09,2.01,0,2.76-.02.15-.02.31-.2.35-.45-1.41.03-3-.35-4.41-.25-.92-1.13-1.83-1.41-2.7-.05-.15-.13-.41.05-.5.92,1.54,1.83,2.67,1.9,4.51Z"/>
  <path class="st24" d="M83.84,51.01c-.04-.37.11-.33.38-.13.19.14.6,2.74.66,3.2.32,2.53.52,5.18,0,7.64-.07.54.11,1.05.56,1.55-.06.15-.02.24.11.26-.95,5.57-1.76,11.18-2.81,16.73l-1.2-7.81c.27,1.45.58,2.88.8,4.36.03.17-.05.17.2.15-.27-1.49.49-3.05.5-4.46.01-1.27-.05-2.57,0-3.85s.33-2.79.6-4.11c-.08-.12-.12-.24-.12-.38,1.46-4.16.87-8.64.23-12.91l.09-.23Z"/>
  <path class="st26" d="M71.72,12.84c-.15,0-.3,0-.45-.02s-.29-.04-.43-.08c-2.1-.72-4.2-1.45-6.28-2.21-1.74-.64-3.31-1.41-4.95-2.24-.96-.44-5.36-1.53-3.66.76.1.27.2.54-.16.59l-.46-.11-3.17-2.38c-1.26-1.38-2.07-1.21-3.76-.71-4.38,1.3-8.65,3-12.21,5.96l-2.59,1.43c-1.22.66-2.16,1.7-2.41,3.11l-.24.22c-.1.34-.27.43-.53.28-.4.52-.86.79-1.37.83l-.25.14c-1.27-.24-2.83-.34-4.07.1-1.36.47-2.77,4-2.7,5.47-.38.6-.86,1.13-1.44,1.59l-3.97,3.53c-1.29,1.08-2.23,2.34-2.83,3.78-.45,2.77-.98,5.53-1.6,8.28l-.28.44c-.11.5-.42.9-.94,1.19-.66,1.66-1.1,3.39-1.32,5.19l-.24.44.19.35c.1,1.63.24,3.25.42,4.86l-.11.19-.1.8-.7-6.76c1.66-5.59,2.78-11.14,3.5-16.94,1.56-2.03,3.16-4.05,4.82-6,1.11-1.31,2.07-2.14,3.04-3.67.59-.93,1.12-2.21,1.76-3.05,3.41-4.42,9-6.43,13.88-8.66s9.55-4.47,14.53-6.2c7.08,3.04,14.1,6.25,21.09,9.51Z"/>
  <path class="st24" d="M60.6,70.95c.58-.08.02.27-.07.58-.43,1.45-.53,2.85-1.18,4.33-.5,1.14-.89,1.36-1.95,1.96-1.82,1.01-3.72,1.33-5.55,2.16-1.54.7-2.13,1.07-3.92,1.39-.18.03-.41-.13-.35.2-.56.03-1.14-.02-1.7,0-.09,1.31-.3,2.69-.3,4.01-.02.21-.12.34-.3.2-.26-.2-.08-2.22.02-2.65l-.22-.15c-.19-.22.03-.1.01-.1-1.31.38-2.24.31-3.56.16-.96-.11-1.98-.33-2.92-.54-.11-.3-.46-.41-1.05-.34-1.66-.46-3.29-1.01-4.9-1.64l-.21.06-.16.16-1.36-.42-.34.46c.36.34.42.57.17.7-.12-.04-.57-.19-.64-.18-.35.06-.84,2.35-.96,2.79-.17.33-.34.09-.5-.14-.49-.06-.77-.26-.84-.6-.25-2.26-.22-4.62-.12-6.85.2-.66.89-.9,1.51-.93-.73-.72-1.52-1.36-2.39-1.93l-.17-.37c-.18-.34.6-.83.91-1,.52-.29,1.66-.68,1.8.1l.23-.06c1.19,1.5,1.86,3.22,1.95,5.12.32.34.53.71.63,1.12.83-.29,1.64-.7,2.43-1.21l.75-.25c-.09-.26-.05-.43.13-.52.15-.03.31-.04.45.03,1.73.82,3.47,1.68,5.02,2.8.03-.06.07-.12.14-.15,2.8-.98,5.42-2.14,8.07-3.53l.24.05.5-.09c.26,1.01.57,2,.94,2.97.81-.78,1.31-1.74,1.78-2.76l.29-.11c-.02-.41.24-.99.51-1.31.96-1.12,5.43-3.1,6.72-3.52l.49.02Z"/>
  <path class="st11" d="M11.61,44.4c.95-1.06,1.94-2.24,2.25-3.71.25-1.43.41-2.92.54-4.32,1.16-.9,1.89-1.98,2.58-3.28.31-.53,1.35-1.69,1.23-.5.04.05.08.1.09.15.05.15-.41,2.69-.5,3.09-1.28,5.35-2.43,10.73-3.46,16.13,1.63,4.48,3.45,8.71,5.46,12.69.06-.07.16-.1.2-.05.11.17.57,1.47.51,1.55-.03.04-.07.07-.11.1-.2.11-.45.11-.76,0-.82.13-1.62.44-2.39.93-.12.01-.32-.02-.35-.14-.26.62-.23,1.29.1,1.99l.65,1.8-.15.21c-.24.04-.47-.06-.7-.3l-.21-.02c-.32-.89-.69-1.8-1.28-2.55-.4.47-.67.56-.81.26-.33-1.61-1.24-2.76-2.1-4.11l-.06-.22c.74-.68,1.08-1.64,1.36-2.57-.54-.26-.88-.81-1.03-1.66-1.01-1.5-1.94-2.92-1.95-4.82l-.13-3.09c-.42-1.67-.36-3.4,0-5.08l-.13-.19c.34-.73.66-1.49.91-2.26l.22-.05Z"/>
  <path class="st1" d="M80.03,36.49c.24-.31.44-.11.61.58,2.8,1.75,5.76,3.41,8.68,5.02l.13.31c-.03.29-.06.52-.1.8l-.26.56c-.74.81-1.11,1.83-1.11,3.04-.16.91-.99,1-1.75.84v1.43c-.02.15-.14.17-.29.13h-.13c-.06-.51-.16-4.34,0-4.49.15-.13.26-.11.44-.06.06-.03.51-1.11.51-1.21s-.65-1.11-.72-1.15c-.35-.17-.78,1.43-.81,1.61-.14.17-.36.21-.66.14-.18.28-.37.57-.58.83-1.37,1.67-2.92,3.62-3.13,5.82-.19.04-.17.15.08.34.09-1.65,1.16-.35,1.27.53-.51,1.29-.9,2.6-1.16,3.96-.14.55-.59,1.54-1.22,1.4-.15.1-1.1.47-1.1.55.22.25,1.08.4,1.19.72.09.26-.3,1.33-.54,1.43-.58-1.44-.8-.46-1.42-.32s-1.24-.23-1.73.12c.36-1.72-.14-3.6,0-5.31-.07-.74.16-1.47.69-2.19,2.04-2.41,2.44-5.32,2.66-8.43-.04-1,.08-1.94.36-2.8-.07-.07-.12-.14-.12-.21-.02-.82-.03-1.86.22-2.59-.07-.46-.09-.94,0-1.4Z"/>
  <path class="st28" d="M32.44,80.57l.28-.04c2.14.8,4.3,1.53,6.51,2.12,1.71.46,4.04.72,5.74.24l.1.08c.16-.04.32-.11.5-.1-.25.82-.24,1.7-.2,2.56.01.25-.07.33.2.15,0,.49.11.92.1,1.4.29.03.47-.19.75-.21.5-.02,1.02.28,1.7.21s1.4-.66,2.05-.4c.19.04.06.27-.1.3-.05.09-.54.67-.5.7l.6-.1c-.39.19-.96.61-1.15,1-.7,1.4-1.21,3.97-1.75,5.56-.29.87-.56,1.76-.9,2.6-.14.35-.43.65-.4,1.05-.4-.47-.65-1.13-.9-1.7-.85-1.95-1.49-3.95-2-6.01l.24-.13c1.08.31,1.25.48,1.7,1.52.08.18-.17-3.61-.28-3.85-.49.58-1.02,1.14-1.57,1.67-.05.31-.14.54-.28.69-.59,0-.04.86-.5.8-.76-1.25-1.47-3.93-2.61-4.75-1.47-1.06-4.62-2.42-6.37-3.25-.82-.39-1.82-.92-2.64-1.22.05-.28-.41-.57-.39-.73.01-.08.41-.59.49-.62.14-.06,1.34.37,1.6.46Z"/>
  <path class="st14" d="M76.02,15.05c.46.12,1,.35,1.4.6.59.25.75.5,1.1,1,.17.05.37.34.3.5,1.72,2.44,5.29,7.04,6.31,9.62-.05.37-.82.26-.8-.1.19-.2-.1-.4-.85-.59-2.55-1.67-5.03-3.47-7.42-5.42l-.14-.4v-.18c-2.59-2.9-5.73-5.35-8.92-7.61l-.1-.23h.1c.04-.08.08-.18.16-.19.49-.1,4.2,1.03,4.87,1.32,1.11.69,2.27,1.25,3.46,1.66.21-.09.38-.09.53.01Z"/>
  <path class="st11" d="M26.63,73.25c1.05.75,2.14,1.48,3,2.46l-.73.07c-1.43.29-1.05,1.2-1.07,2.33-.03,1.59-.08,3.28.11,4.89.1.86.23.46.77.74.2.1.17.36.42.33-.3,1.07-.6,2.14-.9,3.21l-.13.19c-.06.32-.18.78-.37.31-.14-.36-.39-1.4,0-1.65l-.2-.1c-.79-2.71-1.54-5.6-1.66-8.43-.02.1-.1.16-.24.17-.42.16-1.23-.8-1.2-1.2-.04-.1-.08-.21-.22-.33l-3.37-2.9c-1.02-.74-.91-2.15-.23-3.11-.34-.49-.33-.71.02-.67.1,0,.19,0,.28.03s.18.04.25.08c1.61.97,3.19,1.99,4.58,3.21.29.3.59.43.89.38Z"/>
  <path class="st11" d="M84.34,26.67c.28.1.47.14.8.1.44,1.1.88,2.49,1.23,3.63.81,2.6,1.44,5.27,2.18,7.89l-.23-.03-.47-1.07c-.4-.6-.83-1.22-1.29-1.85l-.12.05c-.58-.41-.99-1.29-1-2-.39-2.06-1.84-3.75-3.65-4.75-1.44-.83-2.84-1.68-4.22-2.54l-.24-.02c-.12.22-.18.17-.3,0-.18.23-.36-.2-.13-.4-.31-1.09-.69-2.17-1.13-3.24-.17-.36-.46-1.31.17-1.15.5.13,1.99.94,2.52,1.24,1.54,1.15,3.09,2.27,4.67,3.37.51.19.92.45,1.22.79Z"/>
  <path class="st28" d="M85.54,63.54c-.29.2-.15.05-.25-.1-.16-.24-.63-.94-.65-1.16-.06-.44.27-1.71.3-2.29.15-2.59-.14-6.03-.77-8.55-.02-.1-.1-.75-.33-.42-.32.07-.61-1.08-.56-1.28.12-.54.54-.57.7-.06.44-.52,1.4-.84,1.96-.46.22-.07.04-1.5.1-1.8,2.06.44,1.65-.63,1.93-2.03.22-1.07.66-1.43,1.38-2.18-.61,4.06-1.8,8.09-2.48,12.1-.46,2.74-.86,5.49-1.33,8.24Z"/>
  <path class="st24" d="M17.52,71.05l.27-.03.91.75c1.01.64,1.99,1.34,2.87,2.19l.06.3.08.2c.51.39.69.59.14,1.09l-1.53,1.58c.22.22.5.41.83.55.24.17.48.38.19.59-.25-.15-1.31-.86-1.5-.76-.06.03-.11.11-.14.16l-1.96,9.01-.28-.77c.19-.31.14-.6.18-.93-.12-.89-.16-1.79-.1-2.7-.3-3.8-.58-7.56-.86-11.29l.16-.24.05-.2c.23.15.45.32.65.5Z"/>
  <path class="st29" d="M71.72,12.84c1.39.51,2.69,1.26,4.01,1.9.15.09.25.19.3.3-.17,0-.28.18-.45.19-.82.05-2.96-1.43-3.83-1.77-.74-.29-4.1-1.24-4.74-1.22-.16-.06-.31-.07-.44-.02l-3.82-2.14c.56.37,1.09.78,1.6,1.23l-.03.23c.11.24,0,.2-.2.1l-.25.06c-.97-.41-2.05-.57-3.22-.46-1.17-.12-3.95-.42-4.74-1.28-.08-.09-.09-.21-.1-.32.29-.62-.78-1.07-.39-1.74.54-.94,3.14-.21,3.99.09,1.24.43,2.33,1.24,3.59,1.72,2.86,1.11,5.93,2.09,8.74,3.13Z"/>
  <path class="st39" d="M12.41,64.34c-.09.04-.27-.05-.46.09-.21.16-.26.63-.49.81-.28,0-.42-2.72-.46-3.05-.36-2.76-.78-5.6-1.09-8.37-.19-1.71-.56-3.72-.5-5.41.27-.5.59-.98.95-1.45l.26-.06c.13,1.12-.19,2.23-.1,3.36.04.58.26,1.21.3,1.8.14,1.87-.1,4.01.79,5.73.36.7,1.03,1.49,1.34,2.17.2.44.13.96.53,1.27.12.1.4.11.44.26.06.21-.6,1.76-.77,2.02-.07.12-.67.81-.72.83Z"/>
  <path class="st24" d="M80.03,36.49c-.01-.27-.09-.42-.24-.45-.11-.29-.2-1.54.3-1.41,1.47,1.12,3.05,2,4.74,2.64.38.08,1.23.24,1,.02.31-.17.68-.12,1.13.14.67.52.86.52.57,0l.11-.23c.02-.27.11-.25.2,0,.1-.04.05-.24.2-.2.05.46.36.92.5,1.3.44,1.21,1.02,2.89.9,4.11l-1.4-.85c-1.41-.47-2.47-1.36-3.72-2.09-.71-.42-3.49-1.83-3.85-2.26-.2-.23-.05-.7-.45-.7Z"/>
  <path class="st14" d="M16.82,70.75c.19.94.11,2.26.2,3.26.33,3.54.95,7.45.6,10.97-.17-.41-.41-1.03-.5-1.46-1.01-4.97-1.6-10.09-2.61-15.07.35.11.59-.46.76-.49.4-.07,1.45,2.36,1.54,2.8Z"/>
  <path class="st35" d="M24.43,76.56c.39.35.73.91,1.2,1.2.35.27.42,1.4.1,1.7-1.75.61-3.01-.37-4.41-1.2-.02-.57-1.2-.64-1.21-1.15,0-.24,1.72-1.71,1.9-2.12.03-.26-.66-.47-.39-.74,1.04.45,2.05,1.44,2.81,2.3Z"/>
  <path class="st58" d="M42.86,89.88c-.04-.14-.01-.55.05-.7.16-.37,1.5-1.41,1.63-1.78.04-.12.02-.26.02-.38,0-.09-.18-.06-.24-.04-.32.13-.3.69-.66.69.09-.61.96-1.6,1.18-.53.32,1.59.33,3.38.42,4.99.05.91.15,1.84.2,2.75-.25.02-.17.02-.2-.15-.19-1.28-.14-2.69-.68-3.93-.18-.42-1.09-.68-1.53-.83-.07-.02-.17.01-.2-.1Z"/>
  <path class="st22" d="M25.63,77.76c-.01-.11.11-.3.08-.52-.06-.56-.4-1.21-.48-1.78,1.06.95.8,2.83,1.01,4.15.31,1.92.69,4.21,1.45,5.97.11.26.05.34.05.55v1.65s.19,0,.2,0c.02-.02.02-.47.3-.5-.11.38-.15.87-.29,1.26-.05.14.03.17-.21.14-.51-2.97-1.32-5.89-1.81-8.86-.02-.15-.19-.32-.19-.36-.01-.62-.03-1.04-.1-1.7Z"/>
  <path class="st51" d="M75.72,14.75c.51.25,1.03.47,1.53.72.08.04.42.09.17.18-.48-.2-.87-.26-1.4-.6-.11-.07-.23-.19-.3-.3Z"/>
  <path class="st51" d="M78.53,16.65c0-.11.01-.12.1-.05.2.15.65.87.2.56-.11-.16-.2-.35-.3-.5Z"/>
  <path class="st52" d="M50.18,86.58c.68-1.06,2.95-3.6,4.11-3.96.77-.24,1.55-.3,2.31,0,.26.1.49.37.77.43.51.11,1.14.06,1.69.22.15.04.17-.06.15.2-1.7.47-3.4.97-5.09,1.48-.41.12-.87.41-1.22.48-.44.09-.8,0-1.26.14-.68.19-.83.67-1.24,1.16-.03.04-.27.35-.3.15.06-.1.07-.25.1-.3Z"/>
  <path class="st40" d="M79.83,56.92c1.2-.79.99-1.69,1.33-2.93.12-.43.87-2.38.87-2.54,0-.12-.62-1.25-.79-1.05l-.15,1.1c-.14-.25-1.33-1.3-1.15-1.5.16-.19.52.72.8.6-.02-.38,0-.69.1-1.06.12-.41,1.04-2.15,1.3-2.6.61-1.05,1.56-1.88,2.2-2.91.2-.38.47-.11.64-.15.25-.07.14-1.37.89-1.72.1-.05.16-.11.27-.03s.8,1.12.81,1.31c0,.15-.55,1.4-.61,1.45-.06.04-.35-.15-.4-.1v4.41c-.27.09-.75-.01-1.2.15-.38.14-.59.48-.76.55-.26.11-.15-.52-.4-.4-.34.16.19,1.21.25,1.5.64,3.19,1.1,7.32.55,10.52-.17,1.03-.55,1.99-.75,3-.23.11-.5-.67-.5-.75v-1.6c0-.06-.15-.22-.1-.35-.11-.1-.45.36-.6.15.76-1.38.37-3,.8-4.46-.38.28-.78-.09-.93-.08s-.71.37-.94.46c-.95.35-1.93.27-1.53-.98Z"/>
  <path class="st24" d="M71.62,59.53c.4-.3.56.17.4.56l1.07-.45c.23-.74.68-1.13,1.33-1.15-.5-2.1-.72-4.34-.56-6.53.1-1.43.67-2.01,1.51-.52l.45,1.21c.34.14.45.37.31.68.15.14.06.68-.1.8-.16,1.29,0,2.71,0,4.06,0,.42.22.56-.05,1.04-3.88,4.74-7.4,9.71-10.88,14.77-.22.32-.5.58-.73.88-.13.17-.19.47-.31.59-.14.14-.79.29-1,.3-.32.02-.8-.13-.98-.09-.15.04-.36.37-.62.49-.29.14-1.27.4-1.63.47-.1.02-.44.11-.43-.07,1.06-.33,2.24-.46,2.88-1.48.47-1.66.77-3.38,1.27-5.04.17-.55.78-1.75.83-2.18.07-.57-.06-.95.12-1.73-.28-.1-.2-.49.1-.5-.05-.04-.08-.07-.1-.12-.15-.43,1.36-2.13,1.7-2.5,1.39-1.51,3.08-2.92,5.11-3.39-.02-.28.14-.31.3-.1Z"/>
  <path class="st39" d="M78.73,33.28l.12-.06c.38.57.77,1,1.18,1.26.06-.18.14-.2.29-.1l3.63,2.21c.58.23,1.18.38,1.82.47l.08.23.15.2c-1.58.18-2.21-.45-3.39-1.12-.35-.2-.79-.32-1.1-.5-.51-.3-1.02-.84-1.52-1.19-.15.6.03,1.2.05,1.8.01.47,0,.94,0,1.4-.09-.03-.17-.03-.17,0-.07.84-.09,1.99-.07,2.84,0,0,.06,0,.14-.03-.16,2.53-.44,5.92-1.15,8.32-.54,1.83-2.39,3.11-2.56,5.11-.11.21-.22.34-.2,0,.03-.26.03-.54.1-.8-.08-.36-.02-.69.18-1,.85-1.22,1.58-2.5,2.19-3.84.24-.74.95-5.19.73-5.67,0-.02-.13-.03-.15-.02-.49.15-2.7,2.56-3.07,2.98-1.25,1.42-1.82,2.58-2.31,4.4l-.27.14c-.62-.02.01-1.62.4-1.75l-.2-.11v-1.75l.2-.14c-.08-.07-.12-.15-.1-.25.64-.32.93-.86,1.01-1.56.04-.69.08-1.27.28-1.93.14-.45.52-1.36.92-1.51l-.05-.32,1.54-2.61c.7-1.31.94-2.65.44-4.04-.11-.45,0-.66.34-.63-.05-.41.23-.78.54-.41Z"/>
  <path class="st0" d="M61.6,68.45c-.56,1.27.09.75.5,1.15.57.55-1.17,1.22-1.5,1.36-1.46.59-2.8,1.09-4.21,1.85-.67.36-2.17,1.16-2.7,1.61-.22.19-.64,1.03-.81,1.35-.31.1-.39-.17-.23-.82-.59.34-1.02.38-1.27.12-.71.04-1.42.24-2.14.59-2.7,1.36-5.44,2.6-8.23,3.62l-.22-.03c-1.97-1.2-4.07-2.43-6.24-3.18-.29.18-.78-.17-.7-.5l.34-.15c2.03.19,4.05.45,6.09.79,3.12.37,4.12.47,6.9-.67,4.27-1.74,8.59-3.81,12.68-6.04.53-.5,1.11-.84,1.74-1.04Z"/>
  <path class="st6" d="M68.21,21.96c.15.25.3.5.43.76s.27.51.37.78c.94,2.49,1.87,4.99,2.75,7.47.98,2.74,1.63,5.26,2.33,8.07.17.66.15,1.51.03,2.16v.63c-.97,3.42-1.78,6.88-2.43,10.38-.06.55-.25,1.02-.57,1.41l-.04.2c.31.28.03.78-.23,1.12-2.86,4.09-5.68,8.2-8.49,12.33-.04.43-.19.73-.46.88-.03.02-.17.2-.3.3-3.5,2.65-8.07,4.42-12.09,6.19-1.72.76-4.02,2.08-5.89,2.02-2.52-.08-5.04-.61-7.53-.89-.74-.08-1.5-.09-2.24-.21-.09,0-.17,0-.25-.03-.32-.08-3.44-2.87-3.92-3.35l-.23-.43-.27.05-.85-.53c-2.33-1.01-4.75-2.23-6.95-3.67-.47-.21-.51-.75-.04-.67.64.06,1.43.48,1.8,1l.48.04c2.33,1.09,6.54,3.15,8.16,5.05.1.12.15.27.18.42l.13-.06c.62.59,1.29,1.11,1.99,1.54,2.74.46,5.5.86,8.27,1.15,1.63.17,2.76-.01,4.24-.63,4.12-1.71,8.46-3.74,12.41-5.8.5-.26.96-.59,1.38-.97,3.38-4.7,6.71-9.47,9.98-14.3,1.11-4.34,2.14-8.71,3.1-13.08.3-1.38-.67-5.16-1.12-6.6-1.07-3.24-2.26-6.45-3.6-9.63-.26-.56-.4-1.14-.42-1.71-.27-.34-.68-.91-.5-1.4-.06-.35.39-.33.4,0Z"/>
  <path class="st39" d="M71.11,53.62c.05.21.22.03.48-.27l.3-1.17c.32-.24.5-.14.42.24.29.13.11,1.16-.2,1.25.08,0,.2.02.2.07.04.62.12,3.41,0,3.82l-.2.12c.67.06.12,1.99-.5,1.85-.09.07-.23.06-.3.1-2.03.45-3.72,1.91-5.13,3.41-.32.34-1.8,2.03-1.65,2.38.03.07.05.15.06.22-.04.12-.07.35-.1.5-.45.38-1.02.71-1.45,1.1-.22.19-.43.64-.7.81-.19.12-.43.08-.45.09l.28-.97c2.79-4.37,5.98-8.48,8.81-12.83-.01-.29.05-.47.12-.73Z"/>
  <path class="st38" d="M55.79,9.64c1.37,1.07,3.13,1.22,4.86,1.4,1.15.12,2.47-.21,3.46.6,1.85.94,3.48,2.73,4.52,4.51.46,1.65.77,3.33.95,5.04l-.15.16c.03.25-.27.35-.4.1-1.08-.8-2.04-1.72-2.89-2.77-.33-1.02-.54-2.09-.64-3.2-.21-.62-2.01-.25-2.53-.14-.11.02-.85.18-.86.23.29.25.86.98.22.97h-.22s-2.48-1.97-2.48-1.97c-2.9-2.59-6.89-3.1-10.65-3.49-4.9,1.81-9.73,3.69-14.47,5.64-.76.91-1.34,1.94-1.74,3.11.27.18-.14.93-.4.9.09.68-.69.4-.6-.2l-.21-.05c-.04-.27-.17-.51-.3-.75-.16-.17-.36-.25-.59-.24-.13-.13,0-1.8.05-2.12l.24-.24c.52-3.12,2.92-3.51,5.14-4.93,1.49-.95,2.5-2,4.17-2.84,1.97-.98,4.25-1.91,6.34-2.58.88-.28,2.61-.9,3.46-.95,1.2-.08,1.54.66,2.39,1.26,1.2.85,2.18,1.62,3.34,2.52Z"/>
  <path class="st38" d="M29.04,18.25c.8-.28.59.3.21.74.24,1.4.46,2.82.67,4.25-.89,1.57-1.22.44-1.36-.74l-.22-.15-.15-.03c-.1-.51-.32-.84-.65-.97-.2-.09-.09-.06-.09-.05-2.03,1.8-3.72,3.59-4.73,6.19-.7,1.94-1.52,3.78-2.47,5.53-.34.35-.55.74-.62,1.16.09.02.09.05,0,.1-.32.36-.53-.06-.3-.4-.46-.33-.52-1.18-.54-1.75l-.16.05c-.17.01-.05-.07-.05-.07-.03.09-.16.4-.2.46-.02.02-.08.02-.14,0l-.15-.4c-1.07.81-1.44,2.15-2.26,3.15-.23.29-1.19,1.03-1.26,1.15s.06.29.04.43c-.36,1.74-.21,3.81-1.1,5.32-.23.4-1.08,1.68-1.39,1.91-.15.11-.33.17-.49.26l-.14-.28c-.03-.69.19-1.87.44-2.52.23-1.51.69-3.09.97-4.59s.41-3.14.8-4.51c.32-1.12,2.29-3.07,3.19-3.93.72-.68,4.86-4.1,4.96-4.66.05-.26-.01-.55.05-.85.27-1.33,1.45-4.33,2.84-4.78,1.2-.39,3.13-.36,4.33-.03Z"/>
  <path class="st39" d="M29.04,18.25c.59-.31,1-.72,1.45-1.2l.15.3.3-.2c-.13.79-.07,1.52-.2,2.3.45-.37.47-.17.5.3.23.3.28.69.16,1.16-.33,1.42-.52,2.86-.55,4.32l-.21.23c0,1.39-.09,2.79-.21,4.21l-.19.1c.33.16.15.9-.26.86-.53-.05-1.38-5.56-1.41-6.05.05-.24.08-.47.07-.71-.06-.01-.11-.03-.15-.06-.06-.05-.36-1.33-.15-1.44.18-.12.27-.16.38.07s.26,1.38.32,1.43c1.16-.45.56-1.24.43-2.08-.1-.65-.13-1.31-.26-1.95-.14-.74-.46-.62.23-1.43-.1-.19-.27-.12-.4-.15Z"/>
  <path class="st19" d="M11.61,44.4c-.17.61-.71,1.92-1,2.5-.27.54-.73,1.12-1.2,1.5.03-.94.89-5.13,1.41-5.75.25-.31.9-.53,1.1-1.06-.14.91-.04,1.84-.3,2.81Z"/>
  <path class="st39" d="M20.42,66.24c.24-.16.92.43.9.7l-.18.28c1.8,1.18,3.68,2.22,5.62,3.14,1.2.56,1.52.55,2.67,1.39.39.63.36.83-.1.6-.87-.69-2.07.23-2.7.9-.09.09-.14.22-.26.29-.83-.47-1.52-1.21-2.31-1.77-1.08-.76-2.32-1.49-3.44-2.22h-.26c-1.18-.77-2.37-1.5-3.57-2.21-.06-.14-.02-.25.12-.3.09-.03.22-.01.37-.08,1.08-.48,1.84-1.29,3.14-.72Z"/>
  <path class="st14" d="M33.85,75.56c.3.23.33.28.7.5.35.04.86.11.9.5l.1.7c-1.11.06-2.23,1.22-3.2,1.46-.52.13-.36-.33-.56-.65-.11-.18-.32-.26-.42-.48-.2-.45-.15-1.33-.25-1.85-.14-.71-1.25-2.96-1.78-3.38.43.05.05-.28,0-.55l.1-.05c1.63,1.18,2.88,2.63,4.41,3.81Z"/>
  <path class="st14" d="M51.38,75.06c.1-.03.28.02.42-.02.37-.1.71-.27,1.08-.38.12.14-.29.91,0,1.1-.44.83-.68,1.49-1.26,2.3-.17.23-.51.45-.63.67-.14.26-.04.62-.31.74.1-.76-.33-1.37-.53-2.03-.15-.5-.2-1.04-.37-1.53-.09-.28-.18-.12-.41-.15.39-.45,1.42-.73,2-.7Z"/>
  <path class="st9" d="M34.55,76.06c.7-.28,1.53.49,2.17.79.6.28,1.22.46,1.81.8s1.89,1.42,2.48,1.43c.31,0,2.72-1.08,3.23-1.28,2.32-.93,4.43-2.33,6.83-2.89.19-.04.35-.15.31.16-.63.18-1.4.46-2,.7-1.47.59-2.74,1.51-4.14,2.12s-2.98.83-4.33,1.68c-1.67-1.28-3.61-2.04-5.46-3-.29-.15-.62-.33-.9-.5Z"/>
  <path class="st55" d="M32.44,80.57c-.05-.3.11-.21.31-.16,1.24.33,2.49.98,3.68,1.33,1.09.32,2.72.29,3.79.13.29-.04.58.03.84.15.15.07.25-.01.2.25-.56-.21-1.02,0-1.55,0-.2,0-.92-.14-.95-.11-.42.36,1.16.39,1.24.41,2.16.43,2.73.65,4.94.21.27-.05.28-.05.13.18-.27.07-.55.2-.8.25-1.15.24-3.61-.13-4.83-.38-2.35-.49-4.71-1.53-6.99-2.27Z"/>
  <path class="st14" d="M16.92,67.04c-.05.24.12.21.26.28,1.21.65,2.3,1.47,3.44,2.22-.24.2.2.45.2.65,0,.13-.42.68-.48,1.03-.29,1.73.65,1.9,1.68,2.88.74.7,1.55,1.37,2.26,2.05.04.04.34.36.15.41-.88-.79-1.92-1.55-2.81-2.3-.62-.52-1.1-1.06-1.83-1.53-1.11-.71-1.27-.78-2.28-1.68-.24-.86-1.32-3.06-.88-3.84.11-.19.15-.12.28-.17Z"/>
  <path class="st15" d="M18.62,32.18c.04-.16.07-.58.3-.5-.01.71.2,1.52.4,2.2.11.54-.37.48-.52.04-1.16,5.49-2.33,10.93-3.51,16.33-.25,1.11-.41,2.07.26,3.06l-.13.2.38.58c1.79,4.05,3.53,8.04,5.23,11.95.58.44,1.19.82,1.85,1.15.43.19,1.05.94.25.75-.59-.34-1.22-.65-1.8-1-.23-.14-.65-.59-.9-.7-.1-.35-.33-1.41-.6-1.6-2.01-4.11-3.83-8.33-5.46-12.66l.36-2.17c1.33-5.87,2.57-11.69,3.72-17.46l.17-.18Z"/>
  <path class="st37" d="M18.62,32.18c-.33,1.3-.46,2.7-.73,4.03-1.09,5.26-2.53,10.45-3.38,15.76.66,1.65,1.31,3.29,1.99,4.93,1.08,2.59,2.3,5.13,3.32,7.75-.53-.37-.9-1.32-1.22-2.04-1.55-3.5-3.03-7.07-4.4-10.63.81-5.45,2.34-10.78,3.46-16.18.21-1,.24-2.26.55-3.21.08-.25.41-.9.4-.4Z"/>
  <path class="st21" d="M80.03,37.89c0,.97-.04,1.84-.1,2.81l-.1.5-.2-.35c.12-1.33.01-2.69.1-4.01.01-.17.04-.66.2-.75.06.57-.13,1.27.1,1.8Z"/>
  <path class="st19" d="M68.41,13.85c.11.02.22.05.33.08s.2.08.29.14c1.64,1.2,3.26,2.44,4.76,3.81.77.7,1.63,1.51,2.14,2.38,1.44,1.33,2.65,2.09,4.16,3.21.99.73,1.55,1.39,2.75,2.06.53.29,1.09.55,1.66.74.22.22.27.49-.16.41-2.15-.73-4.07-2.95-6.11-4.06-.77-.42-1.6-.71-2.36-1.15-.15-.02-.18-.01-.14.14.24,1.02.84,2.21,1.15,3.26.04.14.26.9.26.95,0,.06-.21.05-.21.11,0,.11.1.14.11.15l.27.24.69,3.6c.29,1.6.93,3.04,2.03,4.24l.02.33s-.09.1-.16.1c-.16-.02-.98-1.07-1.15-1.3l-.32-.12c-.9-1.85-1.44-3.84-1.62-5.98.02-.14-.33-1.44-.43-1.36-.12.43-.33.68-.63.74-.5.07-.17-.75.2-.7-.14-.08-.22-.25-.25-.5l-.57-.61c-.95-1.53-1.97-3-3.07-4.41-.22-.08-.9,1.9-.96,2.2l-.25.12c-.14.22-.29.31-.44.28-.19-.71-.53-1.15-1.03-1.33l.07-.26c-.24-.59-.29-2.17-.43-2.92-.37-2.04-.54-2.71-1.97-4.24-.76-.82-2.02-1.82-2.91-2.55l.2-.1.26-.07c1.5.84,2.73,2.01,3.69,3.53l-.12-1.02c0-.14.13-.17.28-.13Z"/>
  <path class="st18" d="M67.01,12.24s-.07,0-.1,0l-.05.17c.59.28,1.09.71,1.55,1.17v.26c-.32.22.4,1.52-.15,1.4-.26-.06-1.38-1.77-1.7-2.11-.79-.82-1.41-1.03-2.26-1.6-.15-.1-.48-.47-.71-.64-.32-.23-1.56-.7-.86-1.05l4.27,2.39Z"/>
  <path class="st30" d="M66.91,12.24c.76.52,1.57,1,2.3,1.56,1.98,1.51,4.95,3.94,6.52,5.8.04.05.68.73.2.65-.9-.83-1.68-1.73-2.6-2.56-1.58-1.41-3.26-2.58-4.91-3.86-.4-.31-.73-.77-1.11-1.05-.18-.13-.45-.13-.6-.3-.28-.3-.01-.23.2-.25Z"/>
  <path class="st28" d="M77.33,26.07c.72.27,1.42.66,2.08,1.17,2.7,1.43,5.44,2.96,6.03,6.14.34.66.65,1.35,1,2,.07,0,.14,0,.16.02.18.21,1.11,1.48,1.12,1.64,0,.05-.03.1-.08.14.08.18.21.33.21.55,0,.73-.72-.03-1.04-.17-.3-.13-.66-.19-.97-.28-.51-.15-1.29-.24-1.68-.38-.83-.31-3.7-2.36-4.14-2.43-.42-.51-.89-1.06-1.23-1.63-1.13-1.9-1.22-4.64-1.78-6.79.03-.14.23,0,.3,0Z"/>
  <path class="st46" d="M85.44,33.38c-1.42-2.76-1.27-3.11-4.02-4.85-1.34-.85-2.77-1.59-4.1-2.46.02,0,.11-.11.25-.11.31,0,1.38.92,1.76,1.15,2.4,1.48,4.67,2.14,5.92,5,.14.31.4.97.18,1.27Z"/>
  <path class="st44" d="M86.44,35.39c-.04-.18.06-.31.21-.14s.3.56.49.79c.37.44.86.5.7,1.15-.04.02-.14-.01-.2,0-.28-.61-.84-1.13-1.2-1.8Z"/>
  <path class="st11" d="M76.12,53.32c.1-.43-.31-.27-.48-.57-.24-.4-.49-1.88-1.08-1.94-.31-.03-.42.19-.45.45-.17,1.24-.05,4.12.12,5.4.05.37.44,1.71.38,1.9-.08.25-.57.11-.83.27-.28.18-.28.67-.51.9-.36.37-1.38.39-1.71,1-.13-.34.75-1.08.05-1.2.35-.27.62-1.02.61-1.46,0-.18-.11-.35-.11-.4v-4.01c0-.1.16-1.11.2-1.25l-.13-.24c.33-.62.66-1.24,1-1.85l.23-.02c.41-.95.67-2.21,1.18-3.08.66-1.11,1.69-2.04,2.58-2.93.41-.42,1.39-1.71,1.9-1.71.39,0,.37.23.36.56-.05,1.39-.34,3.79-.68,5.14-.5,1.99-2.12,3.2-2.63,5.03Z"/>
  <path class="st45" d="M71.32,59.63c-.75.43-1.61.69-2.33,1.12-1.36.8-3.87,3.41-4.38,4.89-.64-.11-.12-.72.06-.99,1.19-1.76,4.11-4.5,6.17-5.05.15-.04.38-.16.48.03Z"/>
  <path class="st32" d="M70.11,66.44c-.39.29-.2-.67-.19-.75,0-.38-.06-.69-.08-1.04,0-.11-.05-.42.12-.42.19,0,.57,1.89.15,2.2Z"/>
  <path class="st11" d="M78.73,33.28c-.66-.02-.17.66-.3,1.1l-.4-.6c-.08.74.34,1.31.3,2.06-.11,2.19-1.48,3.71-2.41,5.46-.4.4-1.87.22-1.7-.5-.09-.14-.03-.32.2-.52-.09-1.33-.34-2.64-.77-3.93-.74-3.27.16-6.7,1.75-9.59l.32-.19c.17-.33.45-.6.4-1,.56-.05.68.74.77,1.18.46,2.12.54,4.75,1.83,6.53Z"/>
  <path class="st38" d="M75.92,41.3c-.14.27-.71,1.49-.8,1.76-.3.97.07,2.09-.76,3.05-.16.19-.55.21-.55.45v2c0,.33-.71,1.31-.4,1.75-.25.6-.99,1.66-1.1,2.1l-.2-.25c-.27.61-.07,1.4-.83,1.68-.33.12-.15-.02-.17-.23,1.13-4.04,1.57-8.52,3.01-12.42-.04-.23-.01-.36.1-.4.21.59,1.21.49,1.7.5Z"/>
  <path class="st12" d="M67.81,21.96c.21.44.41.93.5,1.4l-.13.04c.96,2.81,2.02,5.59,3.18,8.34.86,2.27,2.46,7.39,2.08,9.67-.97,4.38-2.03,8.77-3.17,13.14l-8.91,12.83c-.71,1.19-1.52,1.81-2.78,2.5-2.95,1.63-6.44,3.17-9.55,4.53-2.4,1.17-4.12,1.87-6.73,1.67l-5.6-.72c-2.1-.06-3.25-.59-4.62-1.96l-.13.06c-.62-.53-1.21-1.1-1.86-1.6-2.09-1.61-4.69-2.58-6.96-3.91.27.03.27-.08.09-.24-.63-.6-2.12-1.04-2.54-1.77-.18-.31-.25-.83-.41-1.19-1.65-3.73-3.35-7.43-4.86-11.22l.05-.25c.51-.25.73-.72.71-1.26-.17-1.11.05-2.05.43-3.11.25-2.63.72-5.18,1.42-7.64-.45-.58-.3-1.3.45-2.19.09-1.09.4-2.03.94-2.82.28-.24,1.21-.52,1.52-.36l.16.15c-1.69,4.48-2.55,9.43-3.07,14.35-.2,1.85-.27,3.27.33,4.97,1.16,3.31,2.92,6.94,4.55,10.08.23.43.55.9.85,1.29,0,0,.04-.03.08-.08l.21-.05c1.42.79,2.81,1.67,4.17,2.61.57.24,1.12.48,1.66.71.2-.18.59-.06.67.22.14-.26.7-.08.7.2,1.16.09.17.43,1.36.36,0,.1,2.13-.14,2.09-.05-.04.1-1.85.2-2.14.22-.04.07.05,1.57.08,1.65.07.2,1.81.78,2.28.93l.33.29.11.18c3.24.44,6.66.87,9.81.88,4.3-2,8.65-4,13.04-5.99l1.09-.63c3.23-4.39,6.37-8.81,9.43-13.26,1.7-4.46,2.72-9.51,3.38-14.25-.23-.2-.12-.68.2-.7.2.1.14-.55.1-.9-.16-1.44-.46-2.7-.91-4.08-1.32-4.08-3.01-8.17-4.68-12.18-.87-.6-1.78-1.16-2.73-1.69-2.54-1.87-5.14-3.61-7.81-5.2-2.33-.06-4.78-.23-7.07-1.13l-.14-.18c-.06-.19-.13-.29-.21-.31-1.32.24-1.71.07-1.18-.5.92-.82,6.54.36,7.92.81.69-.24,1.09-.2,1.78.1.15.02,1.3.14,1.35.1.12-.09-1.92-1.4-2.14-1.49-1.18-.47-6.72-1.89-7.8-1.5-4.7,1.72-9.35,3.6-13.99,5.48-.09.04-.23.21-.3.3-.54,1.04-1.07,2.09-1.6,3.14-.24.42-.86.56-.57-.02.15-.26.27-.67.4-.9.39-1.17.98-2.22,1.78-3.14,4.62-1.91,9.4-3.8,14.21-5.56,1.01-.37,6.45.95,7.67,1.41.81.3,1.7.87,2.38,1.4,2.95,2.29,5.89,4.62,8.65,7.05.35.32.48.64.38.94Z"/>
  <path class="st39" d="M70.51,23.26l.14.22c-.37,1.04-.45,2.06.25,2.96.15.77.43,1.45.86,2.03.22.05.55-2.86.55-3.13.06-.14.08-.16.18-.25.27-.25,2.89.41,3.38.55l.05.22c-.04.2-.44.57-.2.7-1.32,2.6-1.84,3.77-2.1,6.76-.25,2.79.82,4.14,1,6.51.06.77-.08.55-.4.95-.17.21-.06.29-.1.4l-.23-2.12c-.77-3.99-2.18-7.67-3.57-11.45-.69-1.89-1.39-3.78-2.11-5.66-.43-.1-.05-.5.3-.39.27.23.55.22.83-.02.48.23.81.66.97,1.29.22.02.27.22.2.42Z"/>
  <path class="st15" d="M31.94,73.45c-.05-.28.11-.24.3-.15.81.43.99,1.19,2.11,1.5,1.6.44,3.95.56,5.65.76,1.57.19,3.59.74,5.1.27,2.72-.85,6.12-2.62,8.76-3.87,2.13-1.01,4.5-1.97,6.39-3.33l9.89-14.15c.83-2.51,1.26-5.11,1.83-7.69.39-1.73,1.12-3.88,1.33-5.58.23-1.82-.97-6.13-1.58-7.99-1.03-3.16-2.86-6.61-3.67-9.76-.1-.41.07-.46.26-.11,1.17,3.5,2.9,7.09,3.96,10.62.57,1.92,1.54,5.44,1.34,7.35-1.11,4.36-1.9,8.79-3.11,13.12-3.3,4.41-6.21,9.45-9.56,13.78-.89,1.15-1.64,1.47-2.91,2.1-3.2,1.58-6.7,3.24-9.99,4.64-2.06.88-3.09,1.41-5.43,1.28-2.81-.15-5.78-.82-8.59-1.13-.62-.19-1.55-1.22-2.08-1.67Z"/>
  <path class="st36" d="M62.3,16.55c.15-.01.29.01.42.08l4.13,3.47,2.17,1.36c.11,0,.28-.09.4-.1.1.25.39.3.55.5.22.27.24.68.45.95l.4-.16c.28.18,0,.63-.3.6-.48-.35-.43-1.29-1-1.56-.16-.07-.36.24-.56.26-.23.02-.41-.27-.68-.21-.1.02-.05.19-.06.21-.01.01-.29-.1-.4,0-.54-1.14-1.96-2.17-2.96-3-1.94-1.62-4.14-3.35-6.17-4.85-1.18-.87-1.75-1.32-3.21-1.7s-4.27-1.05-5.74-1.17c-.31-.02-.65-.03-.95.05-2.99,1.3-6.09,2.31-9.11,3.51-1.29.51-4.07,1.43-5.1,2.11-.66.43-1.21,2-1.59,2.72-.07.13-.2.19-.22.23-.17-.06-.02-.32.02-.43.21-.52,1.2-2.59,1.59-2.82.27-.16.68-.17.99-.31,4.45-1.97,9.01-3.66,13.58-5.35,1.98.13,4.1.61,6.06,1.04,2.92.66,5,2.73,7.31,4.56Z"/>
  <path class="st17" d="M32.34,20.76c-.04.25.06.28.24.09.74-.74,1.25-3.14,2.12-3.69,4.63-1.96,9.35-3.69,14.04-5.5.48-.03.99-.06,1.46-.01,1.23.12,5.76,1.13,6.76,1.65.42.22,1.71,1.15,2.02,1.49.12.13.08.2-.07.24-.15.04-1.36-.06-1.58-.1-.32-.05-.72-.31-1.01-.3-.23,0-.33.18-.5.21-.37.06-.82-.21-1.21-.29-1.31-.26-6.03-1.33-6.95-.47-.05.04-.11.09-.1.15.21.15,1.96-.57,1.5.4-.26.24-.57.36-.89.47-1.89.63-3.79,1.26-5.71,1.79-1.58.51-3.21,1.07-4.72,1.7-1.88.79-2.98,1.81-4.29,3.35-1,.76-1.81,1.37-2.13,2.62-.11.22-.32.25-.42.01-.11-.26.33-3.25.48-3.69.03-.1.25-.32.37-.34.24.25.38.64.6.2Z"/>
  <path class="st39" d="M69.01,21.46c-.49-.03-.99-.29-1.39-.56-1.71-1.14-3.64-3.02-5.32-4.35.26-.23-.14-.63-.31-.75-.13-.09-.64-.08-.06-.38.5-.26,2.35-.53,2.93-.48.81.08.77.25.92.98.19.89.05,1.78.49,2.61.26.49,1.11,1.27,1.54,1.67s.98.54,1.2,1.25Z"/>
  <path class="st33" d="M49.07,14.65c1.58.42,3.11.99,4.76,1.1.94.06,1.55-.14,2.45.2.15.1.2.17,0,.2l-.2.15c-1.17-.14-2.35-.21-3.54-.23l-.16-.22c-.14.12-.3.17-.48.11l-2.77-.82c-1.57.54-3.16,1.01-4.77,1.4l-.15.21c-2.25.6-4.46,1.33-6.63,2.2h-.23s-.14.28-.14.28c-1.38.74-2.59,1.75-3.63,3.01-1.13.77-1.45,1.18-1.93,2.4-.24.59-.42,1.21-.59,1.82l-.23.1s-.08.09-.13.11c-.2.09-.09-1.03-.07-1.22.06-1.72.7-4.24.6-5.71.31-.02.49.57.5.8.01.36-.2.36-.27.58-.34,1.02-.41,2.46-.38,3.53.33-.39.36-.94.65-1.35.39-.56,1.26-1.06,1.76-1.55.67-.66,1.23-1.45,1.95-2.06,1.08-.92,2.81-1.47,4.16-1.95,3.12-1.12,6.34-2,9.47-3.1Z"/>
  <path class="st2" d="M20.92,35.89c-.34.26-.88.21-1.24.41-.85.48-.75,2.01-1.02,2.79-.22.64-.93,1.03-.71,1.81.06.2.25.18.26.26.04.23-.3.86-.38,1.21-.46,2.14-.72,4.32-1.04,6.47-.09.61-.42,1.18-.48,1.73-.12,1.07.51,2.29-.91,2.94-.14-.36-.41-.81-.51-1.15-.2-.7.3-2.63.45-3.46.99-5.24,2.48-10.37,3.36-15.63l.6.6h0c.06.21.1.48.3.4.75-.91,1.35-1.93,1.8-3.07,1.46-3.73,3.06-7.35,6.36-9.81.22.05.81,2.5.66,2.74-2.75,3.73-5.55,7.55-7.35,11.77l-.17-.03Z"/>
  <path class="st59" d="M27.54,21.36c.07-.06.32-.26.4-.2.07.41.3.82.4,1.2.12.44.2,1.04.3,1.5.08.5-.11.89-.43,1.28l-2.32,3.07-.35.15-.06.33c-1.04,1.67-2.03,3.35-2.95,5.1-.85,1.24-1.37,2.79-1.84,4.24-1.22,3.76-1.9,7.87-2.33,11.77-.19,1.79-.37,3.66.24,5.38,1.42,3.5,2.96,6.94,4.64,10.33v.22c.33,0,.77.59.6.9.07.12.2.21.2.35-.03.11-.13.06-.2,0-.11-.09-.86-1.14-.97-1.33-1.39-2.36-2.84-6.07-3.95-8.67-.7-1.62-1.25-2.59-1.18-4.42.15-4.05,1-8.01,1.75-11.98l1.46-4.7c.3-.23.32-.71.48-1.07,1.79-3.87,4.44-7.28,6.91-10.72.05-.21-.4-2.21-.53-2.44-.07-.12-.12-.11-.2,0-.74.88-1.66,1.64-2.41,2.5-1.1,1.27-1.77,2.83-2.47,4.34-.95,2.05-1.64,4.36-3.14,6.08-.16-.07.05-.26.05-.3,0-.03,0-.07,0-.1-.02-.14,0-.29.08-.41.55-.83,1.01-1.52,1.44-2.44.99-2.57,1.93-4.96,3.54-7.23.4-.56,2.19-2.53,2.72-2.78.03-.02.08,0,.14.04Z"/>
  <path class="st5" d="M19.62,34.18s-.11-.11-.11-.25c-.01-.5.36-.56.59-.92.14-.22.97-1.76,1.04-1.96,1.37-3.83,2.75-7.28,6.14-9.79.19-.14.28-.19.25.1-.67.56-1.75,1.73-2.36,2.4-2.67,2.98-3.19,7.24-5.56,10.42Z"/>
  <path class="st7" d="M36.75,26.37c-1.64,2.04-3.32,4.06-5.03,6.05-1,1.18-1.71,2.44-1.8,4.03l-.97,7.81c-.09,1.05-1.14.86-1.74.31-.41-.38-3.59-4.51-3.58-4.81-.02-.32.24-.36.5-.4.69-1.46,1.99-2.56,3.28-3.51-.65-1.11-.93-2.18-1.15-3.44-.16-.15-.3-.3-.41-.47.05-.68.05-1.26-.02-1.76l-.14-.24c.34-.62.29-1.07-.14-1.33v-.23c.88-1.29,2.17-2.73,2.94-4.01.1-.16.18-.29.16-.49.33,1.57.44,3.22.81,4.75.06.24.48,1.66.54,1.76.03.05.13.13.15.1l.1-.7c.12-.06.19-.14.21-.24.03-.95.12-1.9.22-2.84,0-.09.07-.12.17-.12.1-.55.89-2.88,1.2-3.26s1.07-.87,1.46-1.25c1.47-1.45,1.86-2.2,3.85-3.11l.58-.09c1.3-.54,2.66-1.06,4.07-1.4.38-.07.61.68.68.96.3,1.14-.93,2.74-1.73,3.46-1.35.99-2.48,2.14-3.4,3.45.43.69-.24,1-.81,1.04Z"/>
  <path class="st42" d="M30.64,25.47c0,.29-.13,1.16.2,1.1-.09.5-.15,1.31-.2,1.85-.03.36.22,1.71-.4,1.35l.4-4.31Z"/>
  <path class="st38" d="M75.92,25.87c-.45-.17-3.18-.78-3.4-.59-.16.73-.12,1.48-.24,2.22-.07.45-.41.89-.28,1.43-.21.21-.2-.1-.3-.2-.77-.8-.64-1.25-1-2.21-.09-.24-.28-.41-.38-.62-.34-.81-.11-1.83.17-2.63.06-.17.21-.34.3-.6.31-.88.51-1.92,1.15-2.6.4,0,2.87,3.99,3.31,4.6.33.45.77.5.64,1.21Z"/>
  <path class="st52" d="M37.75,66.54c4.05-.03,8.09,0,12.11.08l.05.21c-.31,1.74-.43,3.47-.36,5.19.12.07.03.42-.07.49-.81.57-3.18,1.67-4.14,1.85-2.25.07-4.48,0-6.7-.21,0,.08-.03.18-.09.18-.39.03-3.23-.29-3.29-.44-.02-.04-.02-.09-.02-.14-.98-.24-1.91-.61-2.81-1.07l-.1-2.03h1.05s-.97.12-.97.12c-1.03-.06.17-.24-.85-.31-.19-.01-.28-.1-.34-.11.75-.17,1.53-.24,2.36-.19,1.23-.09,4.05-.33,5.05-.85.09-.05-.56-.99-.62-1.08-.16-.28-.35-.63-.09-.92-.33-.17-.71-.68-.19-.77Z"/>
  <path class="st50" d="M29.04,58.43l.28.11c2.11,2.44,4.26,4.85,6.44,7.23l.1.27c-.08.24-.31.34-.68.31-1.6-.09-2.13-.06-3.24,1.09-.16.17-1.49,1.55-1.44,1.64.33.13.38.95.05,1.07-.83-.19-1.47-.28-2.27-.68-1.57-.79-2.86-2.08-4.44-2.82-.19-.3-.43-.6-.6-.9-.59-1.62-1.3-3.23-2.11-4.83-.04-.16-.04-.32,0-.48-.06-.73.37-1.6.71-2.27.17-.33.68-1.28.8-.64.09.02.14.07.15.15l-.44,1.33,1.45.49.04.24c.46.06.69.44.7,1.14.46.49.82,1.03,1.1,1.62-.17-.35-.04-.77.39-.62.34.61,2.27,3.04,3.06,2.58.02-.01.03-.02.05-.04-.07-.52-.05-.65.15-1.08.11-.24-1.44-3.17-1.8-3.61-.06-.12-.13-2.53-.05-2.63.1-.13.19-.19.36-.17.1.01,1.34,1.28,1.24,1.51Z"/>
  <path class="st48" d="M37.65,66.54c.02-.09.05-.09.1,0-.31.55.74.57.6,1.1l-.35-.2c-.09.58.67,1.17.81,1.7.03.14.1.25-.06.35-2.49.66-4.93,1.01-7.51.85-.37-.06-.5-.15-.7-.2v-.9s-.4.25-.46.3c-.17.15-.19.63-.45.05.98-.7,2.35-2.94,3.41-3.31.91-.32,1.9.01,2.8-.25.16,0,.33.07.51.24.5,0,.93.08,1.29.26Z"/>
  <path class="st16" d="M35.25,73.76c.77.19,2.68.53,3.41.4,2.19.19,4.34.3,6.44.35,1.62-.51,3.15-1.32,4.69-2.2,3.08-1.28,6.11-2.66,9.1-4.14l.31-.03c-.11-.06-.05-.23,0-.34,3.14-4.27,6.24-8.57,9.31-12.88.85-2.31,1.53-4.67,2.04-7.08l.17-.23c-.11-.47-.05-.98.18-1.53.23-.89.43-1.76.62-2.68.03-.13.07-.23.2-.3.09-.28.07-.48-.08-.59-.04-.44.4-2.61.84-2.76.18.1-.27,1.3-.29,1.47-.34,2.7-.92,4.97-1.54,7.57-.72,3.03-.85,4.88-2.65,7.57-2.72,4.06-5.81,7.92-8.59,11.94-2.27,1.39-4.94,2.32-7.39,3.43-1.93.88-3.78,1.9-5.74,2.68-.32.13-.78.47-1.08.53-.44.09-1.84-.04-2.38-.08-2.08-.14-4.44-.34-6.5-.61-.46-.06-.92-.14-1.37-.24l.3-.25Z"/>
  <path class="st52" d="M70.21,32.48l.12-.02c.03.26.13.4.28.42.07,0,.14.02.16.05.46.73,1.08,3.14,1.3,4.07s.43,1.98.35,2.9c0,.03-.05.06-.11.09-.02.13-.16.45-.2.7-.03.17-.15.43-.19.66-.09.55-.03,1.22-.21,1.74h-.14c-.16,1.02-.38,2.03-.68,3.02-.11.13-1.03-.22-.89-.51l-.15-.25c.27-1.36.63-3.04,1.34-4.2-.02-.33.03-.54.4-.6-.18-1.29-.57-2.57-1.19-3.84-.02-.13-.02-.24.1-.33-.23-.09-.36-.36-.39-.8-.52-1.1-.97-2.34-.11-3.37l.19.26Z"/>
  <path class="st10" d="M56.29,15.95c2.57.98,6.16,4.04,8.66,5.61.67.42,1.44.64,2,1.2,1.3,3.3,2.72,6.58,3.91,9.92.74,2.08,1.72,4.97,1.66,7.16,0,.17.03.41-.2.15.24-1.91-1.04-5.28-1.7-7.11l-.3-.47c-1.14-3.28-2.39-6.43-3.77-9.46-3.35-2.22-6.76-4.41-10.21-6.57l-.05-.23v-.2Z"/>
  <path class="st11" d="M44.37,16.55c1.14-.23,2.25-.56,3.33-.97.53-.26.89-.25,1.07.04l-.12,4.15c-.97,1.22-1.94,2.43-2.91,3.65l.03.14c.12.08.19.06.23-.04l1.98-.13c.15-.32.41-.6.77-.83.56-.8,1.23-1.37,2-1.72.52,0,2.42,2.07,2.37,2.73l.72.24c.24.12.39.26.14.44-.07.07-.13.12-.2.12-.98,0-2.05-.09-3-.22l-2.4-.1c-.51.19-1.18.15-1.7,0l-.35.21c-3.2.44-6.32,1.23-9.35,2.36l-.22-.07c-.1-.02-.1-.08,0-.2.5-.4,1.11-.33.51-1.04.43-.33.63-.89.95-1.26.97-1.09,2.71-2.19,3.55-3.36.17-.23.79-1.46.81-1.71.02-.28-.23-1.34-.55-1.35-.9.27-1.82.5-2.71.8-.56.19-1.46.84-1.95.5,1.12-.51,6.02-2.41,7.01-2.4Z"/>
  <path class="st7" d="M56.29,16.15c.31.09,1.15.65,1.49.86,2.22,1.34,4.37,3.04,6.57,4.45.58.37,2.02,1.03,2.36,1.45.32.4.57,1.23.78,1.73,1.1,2.68,2.15,5.51,3.13,8.24-.26.47-.3-.15-.4-.4l-.3-.4c-1.19-2.97-2.39-5.93-3.62-8.89l-9.5-6.18c-.79-.39-1.76-.62-2.62-.41-.32.08.36.71.5.82,1.49,1.17,2.86,2.46,4.11,3.87.57,1.27,1.36,2.07,2.46,2.86.63.74-.01,1.01-.71.7-1.51-.85-3.45-.93-5.17-.88.39.16.59.36.62.6.09.03.09.06,0,.1-.17.03-.37-.04-.6-.2-.35.23-1.09.03-1.4-.2-.03-.37-.8-.34-1-.55-.13-.13-.09-.49-.25-.75-.12-.19-1.46-1.64-1.64-1.76-.26-.17-.36-.23-.66-.05-.6.35-1.38,1.62-2.11,2-.12.07-.11.35-.16.39-.16.14-2.01.14-2.37.19-.05-.04,0-.16-.02-.18l.02-.22c1.66-2.03,3.26-4.09,4.79-6.19.54-.61,1.01-1.14,1.8-1.31,1.13.18,2.95.02,3.91.3Z"/>
  <path class="st14" d="M52.38,15.85c0,.37-.35.26-.56.4-1.12.76-2.53,3.01-3.41,4.1s-1.87,2.05-2.65,3.21c-.02-.02-.19.05-.2-.05.79-1.36,2-2.35,2.88-3.63l.12-4.33c-.25-.01-.49.06-.72.13-1.35.39-2.07.87-3.49.87l4.77-1.6c1.1.23,2.13.72,3.25.9Z"/>
  <path class="st35" d="M25.83,30.18c.06.47.1,1.31.03,1.81-.13,1.01-.41,1.99-.77,2.94-1.52,3.31-2.78,6.6-3.15,10.19.09.77.08,1.85-.99,1.47-.07.65-.38,1.59-1.03.91-.08-.02-.16-.07-.21-.14-.31-.46,1.28-6.52,1.66-7.49.17-.53.26-.99.24-1.53-.48-1.37.1-2.3,1-3.31.44-.68-.06-.85-.09-.81-.33.53-.63,1.3-.85,1.9-1.99,5.2-2.71,10.83-3.14,16.34,0,.08-.04.15-.07.22s-.08.15-.13.22c.61,2.46,1.55,4.82,2.83,7.08l-.02.44c.67,1.49,1.51,3.18,2.08,4.68.07.18.23.48.02.63-1.59-2.91-3.64-7.38-4.79-10.49-.75-2.05-.29-4.89-.01-7.08,1-7.92,2.55-13.25,7.1-19.8.97.49.47,1.05.3,1.8Z"/>
  <path class="st24" d="M36.75,26.57s.07.07.09.11c.06.1-.98,1.36-1.16,1.53l-.24-.03-.09.32-2.7,3.21c-1.48,1.58-2.13,2.65-2.39,4.64-.86,6.62-1.67,13.45-2.38,20.1l-.16.1c-.43-.04-.43-1.23-.1-1.4.05-.4.02-.79-.08-1.17l.87-8.64c-.24-.39-4.23,1.27-4.61,1.63-.77.73-.84,2.99-.8,3.97-.08.19-.22.1-.38,0l-.27.02c-.49-.42-.93-.87-1.35-1.35-.18-.21-1.16-1.4-1.21-1.55-.07-.22-.13-.47.13-.53.14-.03.52.05.59-.01.05-.04.28-1.11.31-1.29.3-.07.2.34.45.31.74-.11.44-.9.46-1.34.07-1.07.77-4.23,1.12-5.3.83-2.54,2.22-4.62,2.75-7.46.13-.71.06-1.51.23-2.23.3-.06.19.15.2.35.01.35-.07,1.13.02,1.39.05.14.29.17.4.41.23.52.21,1.4.46,2.04.11.29.77,1.37.72,1.56-1.06.79-2.1,1.66-2.88,2.73-.14.2-.38.76-.47.84-.17.15-.54.01-.45.25.65.72,3.34,4.85,3.98,5.04,1.15.34,1.06-.71,1.2-1.56.46-2.65.46-5.63,1.06-8.26.35-1.51,3.09-4.33,4.18-5.64.83-.99,1.49-2.14,2.51-2.95-.01.06.02.15,0,.2Z"/>
  <path class="st53" d="M59.89,56.92c.22.16.04.73.09.4h.11c.33.25.09,1.19-.07,1.55s-.64,1.03-1.03.95l-.03.31c-1.38,1.46-3.06,3-4.61,4.3-1.12.95-2.16,1.61-3.44,2.22.24.36.4.77.47,1.23l1.31,1.61c.36.44.37.76.04.97l-2.92.9c-.03.39.08.54.33.44l8.13-3.62.02-.02c-.63-.35-1.27-1-.2-1.23.03-.04.06-.07.1-.09.21-.11,1.33.77,1,1.29-2.42,1.44-5.21,2.42-7.78,3.59-1.38.63-2.7,1.4-4.07,2.04-.42.2-1.93.89-2.27.95-.45.07-2.26-.12-2.86-.16-1.18-.09-2.38-.27-3.56-.4,1.04-.18,1.13-.04,2.15,0,1.52.07,3.97.29,5.33-.18,1.08-.38,2.17-1.13,3.24-1.57l.1-.61c-.42-1.67.08-3.38.3-5.06-1.62-.04-3.24.05-4.86,0-2.37-.06-4.8-.09-7.16-.2-.03,0-.07,0-.1,0-.27-.03-.25-.12,0-.2,1.54-.05,3.07-.05,4.61,0l.25-.12,3.94.1c3.16.19,4.96-.16,7.28-2.14,1.97-1.69,4.11-3.59,5.74-5.54h.22s.1-1.42.1-1.42c-.19-.09-.19-.21,0-.3.03-.09.06-.09.1,0Z"/>
  <path class="st1" d="M41.86,73.05c.12-.69-.15-1.51-.1-2.15s.53-1.55.55-2.26l3.74,2.97c.1.37-.55.41-.82.55s-1.53.89-1.62.89h-1.75Z"/>
  <path class="st1" d="M18.32,52.92c0-4.55,1.3-11.07,2.65-15.43.38-1.21.87-2.38,1.45-3.51,1.41.44-.1,1.56-.48,2.27-.65,1.19-.07,1.46-.13,2.47-.04.85-.84,2.96-1.07,3.95-.27,1.19-.9,3.73-.83,4.83.05.82.15.5.49.97.92,1.27,1.09,1.42,2.22,2.44.08.05.16.03.25-.04.54.69.93,1.05,1.74,1.41l1.72.67c1.04.52,1.49.96,1.3,2.17.02.5-.08.94.1,1.4.06-.02.11-.04.14-.02.32.28,1.09,1.2,1.39,1.56.02.03,0,.09-.02.16.21.34.13.45-.2.2-.28-.32-.79-.97-1.05-1.2-.12-.11-.18-.13-.35-.1-.19.13.13,2.14.03,2.54,1.05,1.46,1.74,3.27,2.28,4.97-.39-.25-.34-.87-.65-1.2l.05,1.2c-1.6.21-2.62-1.46-3.41-2.6-.44-.08.08.62,0,.9-.31.29-.69-.85-.82-1.04-.19-.29-.63-.66-.76-.94-.23-.48.07-.92-.52-1.23l.24-.19c.21.03,2.79.26,2.75.13-.11-.11-.08-.19.02-.33l.04-.21c-.92-1.27-1.82-2.56-2.69-3.88.12-3.45-2.27-2.41-3.72-.57-.23,1.06-.63,2.67-1.48.74-.26-.82-.49-1.65-.67-2.49Z"/>
  <path class="st48" d="M18.32,52.92c.44.66.46,1.57.75,2.3.1.25.57,1.26.83.73.28-.57.12-1.18.68-1.82.27-.3,1.75-1.32,2.12-1.39.49-.09.75.03,1.12.34.7.58.41,1.12.52,1.89.18,1.25,2.11,2.9,2.62,3.99.08.16.22.42-.12.37l-.25-.06c-.91-1.21-1.75-2.47-2.52-3.79-.38.6-.75,1.22-1.13,1.86l-.31.2c-.06-.21-.25.12-.28.17-.57.83-.84,1.82-1.22,2.74-.96-2.13-2.81-5.23-2.81-7.51Z"/>
  <path class="st7" d="M26.83,59.33c.08.16.26.27.2.5-1.08.21-2.12-.09-3.21-.1-.44-.23-1.22-.34-1.7-.61-.06-.09.4-1.39.49-1.59.35-.81.85-1.56,1.45-2.2.59.76,1.07,1.6,1.61,2.39.42.61.79.86,1.14,1.61Z"/>
  <path class="st25" d="M37.45,66.24l.2.1v.2c-.44-.03-.88-.14-1.33-.12-.15-.12-.33-.25-.47-.38-2.34-2.17-4.64-5.2-6.81-7.61.21.02.22.01.2-.2l.51.4c2.14,2.42,4.25,4.77,6.34,7.07.34.38.84.4,1.31.41l.05.14Z"/>
  <path class="st48" d="M66.21,41.9c.19.19.35.4.47.64l2.36,6.77.03-.7c.34-.95.56-1.89.72-2.87l.24-.13.8.4c.28-.98.36-2.13.67-3.09.04-.13.07-.29.23-.32,0,.16.02.34,0,.5-.13,1.44-.67,3.1-1,4.51l-.12.06c-.54,2.45-1.22,4.85-2.06,7.21l-5.8,8.15-.18.19c-.84-.06-1.69-.08-2.55-.08-.62-.02-.99-.22-1.11-.59.13-.6.17-1.39.18-2.04,0-.24-.03-.48-.08-.66.99-.96.98-1.13,1.1-2.5-.1-1.18-.15-2.47.2-3.61.18-.74.98-.18,1.14.36l.3-.03c.77.77,1.42,1.64,1.97,2.62-.34.67.77-.28.77-.5-.22-.7-.56-1.36-1.02-1.98-.84-1.06-1.52-2.16-2.05-3.3.42-.49.8-.93,1.02-1.59-.1-.55.24-.84.75-.97l1.3-.29c.81-.7,1.74-1.18,2.85-1.26-.56-1.57-1.08-3.16-1.54-4.75-.01-.41.21-.54.41-.14Z"/>
  <path class="st35" d="M70.71,47.61c-.58,2.49-1.08,5.02-2.09,7.38l-9.44,13.16c-.3-.1-.07-.39-.23-.57-.11-.14-.67-.47-.88-.63-.34.11-.65-.09-.93-.59-.31-.02-.46-.15-.45-.38.47-.76.89-1.54,1.27-2.34-.56-.45.57-1.96.91-1.1.9.6,2.03.38,3.06.4.28,0,.56.22.75-.04l5.73-8.1c.98-2.27,1.25-4.75,2.04-7.08.05-.14.09-.37.25-.1Z"/>
  <path class="st35" d="M70.21,32.48c-.23-.15-.18-.13-.25.1-.53,1.71-.12,1.54.35,2.95.09.28.1.58.2.86-.11.65-.52.96-.88.21-1.2.8-2.44,1.55-3.72,2.23-.35.86-.81.56-1.21-.06-.87-1.26-1.81-2.49-2.82-3.69.07-1.69.04-3.37-.09-5.04-1.25-2.17-3.51-4.46-5.81-5.47-.14-.05-.96-.55-1-.65-.09-.22.15-.13.25-.14,1.02-.14,3.36.13,4.38.43.58.17,1.03.66,1.68.57.02-.15,0-.23-.09-.36-.3-.39-1.18-.88-1.61-1.4-.46-.56-.73-1.31-1.15-1.85-.79-1.01-2.74-2.53-3.76-3.45-.43-.39-1.42-1.24-.26-1.36.85-.09,1.91.14,2.63.59l9.4,6.13c1.38,3.07,2.51,6.28,3.76,9.42Z"/>
  <path class="st7" d="M55.99,24.57c.23.09.67.1,1,.25.88.4,4.3,3.86,4.77,4.74.13.24.2.38.24.67.17,1.49-.14,3.26.02,4.79.59.71,1.21,1.41,1.78,2.13.29.37,1.24,1.87,1.5,2,.31.16.3-.32.47-.46.36-.28,1.15-.54,1.57-.81.47-.3,1.91-1.56,2.42-1.49.04,0,.13.61.45.4.05-.03,0-.49.3-.4.34,1.02,1.08,2.63,1.28,3.58.04.2.09.66-.08.78-.07.05-.25.02-.28.06-.05.06.01.29-.04.41-.07.17-.25.26-.33.47-.38,1.03-.78,2.79-1.05,3.91s-.19,1.48-.61,2.55c-.35.88-.12,1.29,0,2.12,0,.07.08.43-.09.29-1.14-2.84-1.96-5.83-3.11-8.67-.26-.1-.45-.36-.57-.77-.12-.42-.39-.33-.82.27l-1.61,1.96c-.63.75-1.15.06-1.33-.64l-.38-1.32-.76.35c-2.38.58-4.81.99-7.29,1.23-.29.61-.7.15-.96-.24-1.01-.63-2.07-1.2-3.17-1.7-1.47-.68-1.34-2.24-1.12-3.59l.2-.15c.09-.19.21-.19.3,0l.2.17c-.06.76-.05,1.51.02,2.25l-.12.18c1.37.99,3.01,2.03,4.76,2.45,2.57-.28,5.09-.73,7.57-1.33.2-.15.23-.63.24-.87.16-2.62.25-5.34.33-7.97.02-.65.04-1.46-.14-2.08-.44-1.48-4.04-4.58-5.52-5.31l-.02-.11v-.1Z"/>
  <path class="st3" d="M48.37,24.06l2.4.1c1.03.02,2.18.01,3.21.1.47.04.97.1,1.4.2,2.04.85,3.65,2.5,5.09,4.13,1.15,1.31,1.2,1.61,1.2,3.43-.16,2.67-.27,5.45-.33,8.1,0,.29-.07.89-.37.97-.82.22-1.63.39-2.47.53-1.64.27-3.32.51-4.97.72-.94.12-3.99-1.88-4.76-2.45-.04-.08-.09-.08-.11-.24-.08-.64,0-1.68,0-2.36-.08-.15-.22-.19-.41-.13-1.43.07-3.88.45-4.89,1.44l.03.22c-.4.29-.78.62-1.01,1.07h-.22s-.09.06-.09.07c-.03.19-.07.37-.09.57-.41,3.85-.82,7.78-1.21,11.52.48.32.99.73,1.53,1.25.55.3,3.59-.24,4.04-.62l.58-.68.14.03c.26-.18.85.43.7.7.05.08.09.17.04.23-1.01,1.24-1.56,1.54-3.19,1.74l-4.03.19c-.65-.13-3.14-2.57-3.24-3.24.51-4.55,1.12-9.21,1.82-13.79.13-.86,1.31-1.99,1.98-2.57.88-.76,1.26-.82,2.41-.96.82-.1,1.69-.2,2.5-.13,1.51-.69,4.09,1.11,4.39,2.53l.02,2.34c.01.45.03.53.47.51,2.27-.29,4.5-.68,6.68-1.15.09-.2.21-.28.36-.23.2,0,.23.14.25.31.75-.05,1.41-.51,1.32.28.31.12.36.71.33.04l.21-.13c.04-.17.08-.21.11-.13.03-2.31.1-4.59.21-6.86l-.12-.32c-.16-.04-.23-.19-.22-.44l-.38-.5c-.13-.65-.39-1.22-.78-1.69-.72-.61-1.24-1.17-1.53-2.07-.91-.38-1.78-.84-2.6-1.39.27-.43-.28-.49-.67-.52-2.44-.18-4.88-.32-7.32-.29-.31-.07-.42-.3-.11-.41.57-.01,1.14,0,1.7,0Z"/>
  <path class="st47" d="M46.67,24.06c-.06.3.15.19.35.2,2.37.08,4.75.02,7.12.3.12.01,1.22.21,1.05.4l-.3.25c.54.24,1.04.57,1.57.84.37.19.89.21,1.14.56.17.24.18.58.35.85.41.64,1.2.99,1.59,1.82.16.35.2.77.34,1.06.22.45.79.49.72,1.24.13.91-.01,1.66-.15,2.64.06,1.51.34,2.89.15,4.36-.03.43.46,1.23-.11,1.15-.64-.1-.86-.45-1.79-1-.46-.27-.64.19-.7-.55-.24-.57-.32-1.21-.23-1.91.15-2.04.16-4.08.01-6.11-.07-.66-2.81-3.63-3.38-4.08-3.08-.28-6.18-.47-9.28-.57-2.51.46-5.05,1.28-7.43,2.22-1.89,2.16-3.77,4.36-5.62,6.61l-.39.63c-.66,4.43-1.27,8.92-1.83,13.45l-.21.69c-.12.51-.72.96-.8.2l-.06-.66c.4-4.78,1.03-9.52,1.89-14.22,1.47-2.12,3.07-4.14,4.79-6.05v-.2c.18-.23,1.27-1.5,1.3-1.6.71-.22,1.39-.53,2.1-.75,2.37-.74,5.39-1.7,7.81-1.75Z"/>
  <path class="st47" d="M50.78,24.17c-.78-.01-1.66.09-2.4-.1.78,0,1.66-.08,2.4.1Z"/>
  <path class="st31" d="M55.99,24.67c1.46.54,4.64,3.57,5.45,4.92.37.61.37,2.09.36,2.85-.01,2.33-.15,5.08-.3,7.41-.04.54,0,1.17-.53,1.38-2.06.81-5.15.68-7.34,1.28-.96-.12-1.82-.6-2.66-1.05-.53-.29-1.96-1.06-2.2-1.55.09-.24.27.03.35.1.72.62,3.5,2.13,4.41,2.21,2.47-.38,4.95-.7,7.4-1.22.42-.14.24-1.98.26-2.44.05-1.13.06-2.27.1-3.41.05-1.33.48-3.73.16-4.96-.11-.43-1.05-1.42-1.4-1.8-.71-.78-1.97-2.13-2.75-2.76-.59-.47-1.35-.66-1.91-1.15.22.05.39.12.6.2Z"/>
  <path class="st35" d="M27.64,55.12c-.03-.89,0-1.02-.75-1.6-.9-.7-2.18-.84-3.09-1.42-.43-.28-.78-.83-1.17-1.19.3.06.19-.15.2-.35.02-.46-.04-.95,0-1.41.05-.54.48-1.99.85-2.36.3-.3,2.57-1.22,3.11-1.4.59-.2,1.22-.42,1.86-.25l-1.01,9.97Z"/>
  <path class="st56" d="M35.45,28.17c.34.12.09.3-.06.49-1.51,1.95-3.27,3.72-4.62,5.8-.85,4.93-1.37,9.89-1.93,14.85.02.11.08.2.17.27-.28,2.29-.54,4.59-.78,6.9,2.23,2.49,4.47,4.98,6.71,7.46.18.2.3.45.41.69l.41.15c.27.39.61.68,1,.89,3.73.2,7.49.3,11.28.32,2.51-.06,3.61-.47,5.49-2.06,1.73-1.46,3.46-3.12,5.05-4.74.31-.32.57-.71.66-1.14.13-2.38.23-4.76.28-7.16.02-.37-.27-.59-.88-.66l-.06-.24-.35.06c-1.63-.95-3.4-1.35-5.28-1.3-1.37.05-2.74.07-4.11.06-.52,1.08-1.05,2.13-1.6,3.15l-.18.04c-.12.19-.59.8-.78.88-.41.17-3.02.64-3.48.64-.71,0-1.24-.82-1.76-1.26-.1-.09-.36-.13-.38-.17-.21-.33.32-3.04.38-3.64.3-2.77.44-5.57.9-8.32.01-.07.05-.47.2-.25.25.13.2.68-.1.7.05.02.09.04.1.07.1.49.03,1.39-.03,1.88-.34,3.12-.68,6.24-1.12,9.35,0,.01-.03-.1.19.03.28.18.93.89,1.06,1.19.5-.02,1.1-.06,1.67-.16.69-.11,1.38-.25,2.04-.46.05.08.11.12.2.12l-.05-.12c.8-.86,1.4-1.88,1.78-3.09.32-1.01.87-1.41,1.68-1.19,1.93-.11,3.86-.08,5.78.1,1.5.41,3.05.98,4.34,1.8.26-.19.58-.05.36.19.03.41,0,.81-.06,1.22.23,1.12.2,2.5-.1,3.61-.04.61-.08,1.21-.1,1.8,0,.1,0,.2,0,.3l-.1,1.4c-.13.34-.49.65-.75.9-1.37,1.35-3.02,2.88-4.46,4.16-1.37,1.21-2.75,2.48-4.66,2.65-2.4.22-5.13.03-7.56,0-1.58-.01-3.18-.05-4.81-.1-.42-.02-.95.04-1.31-.24-.26-.21-.67-.88-.94-1.16-2.04-2.16-3.99-4.39-5.96-6.61-.38-.43-1.32-1.23-1.5-1.7.08-.38.16-.77.2-1.15.65-6.03,1.12-12.12,2.02-18.12.25-1.69.27-2.61,1.29-4.02,1.29-1.77,2.82-3.37,4.2-5.06Z"/>
  <path class="st52" d="M58.99,59.83c.24-.06.22.13.25.29.13.74-.22,1.61.05,2.41-.13,0-.27.01-.4,0s-.24-.12-.4-.05c-.19.08-.52.71-.51.9,0,.06.2.05.21.11.08.51-1.43,2.53-1.31,2.65.51-.11.51.3.75.5.14.12.31.19.45.3.08.36-.49.21-.4.45.03.07.41.42.5.5.23.19.71.13.17.47l-8.18,3.64-.5.05-.09-.84,3.2-.96c.03-.15-.03-.24-.09-.36-.3-.62-1.32-1.47-1.56-2.05-.08-.2-.03-.41-.1-.6s-.34-.5-.34-.56c-.04-.29,1.33-.77,1.63-.95,1.87-1.15,5-4.27,6.68-5.89Z"/>
  <path class="st49" d="M60.29,53.72c-.03,1.19-.1,2.42-.2,3.61l-.1.2h-.1c0-.2,0-.4,0-.6-.11-.59-.07-1.21,0-1.8,0-1.2,0-2.41.1-3.61.08-.45.1-.94.01-1.4.12-.05.22-.02.33.02.27.1.22,2.9.17,3.35l-.21.23Z"/>
  <path class="st48" d="M42.26,66.34c-1.48-.01-3.16.11-4.61,0-.08,0-.17,0-.2-.1,1.4.06,2.85-.02,4.26,0,.17,0,.45-.06.55.1Z"/>
  <path class="st48" d="M59.89,56.92h-.1c0-.58-.09-1.27.1-1.8,0,.6-.01,1.2,0,1.8Z"/>
  <path class="st48" d="M59.69,58.63c.05-.44-.12-1.02.1-1.4-.01.49.08.95-.1,1.4Z"/>
  <path class="st35" d="M48.37,37.29c.03,1.58-.66,2.55.93,3.52.93.57,2.39,1.08,3.21,1.7.38.29.47.94.83.3,2.04-.32,4.14-.51,6.15-.96.66-.15,1.56-.31,2.05-.75.3,0,.43,2.55,1.19,2.38.39-.08,2.22-2.89,2.72-2.89.22,0,.66,1.07.75,1.31-.32-.21-.22.05-.18.23.43,1.65,1.1,3.25,1.58,4.88-.78-.02-1.57.23-2.24.62-.26.15-.54.48-.8.6-.47.22-1.7.18-1.93.69-.07.16.03.31-.02.47-.08.21-.42.9-.54,1.07-.41.54-.73.2-.21,1.04.73,1.18,1.64,2.32,2.35,3.56.15.27.55,1,.43,1.27-.09.21-.93.96-1.2.91-.31-.06.23-.53,0-.7-.37-.26-1.5-2.35-1.78-2.3-.11.02-.19.24-.37.19,0-.48-.56-1.17-1-.7.03-.92.08-2.15-.01-3.04-.01-.1-.04-.47-.19-.46-.02.35.03.71,0,1.06,0,.13-.1.22-.1.24-.06-.34.09-.95,0-1.24-.01-.04-.24-.14-.31-.16-1.32-.83-2.87-1.4-4.37-1.81-.58-.11-.76-.51-.55-1.19-.08-.55-1.37-3.06-1.85-2.99-.79.73-1.49,1.58-2.1,2.54-.41.51-.86.99-1.43,1.33-.87.16-1,.4-1.38,1.16-.47,1.34-1.07,2.43-1.81,3.25l-.03.2c-.32.24-3.22.77-3.64.68-.16-.03-.18-.13-.27-.18-.24-.42-.61-.82-1.11-1.2l-.08-.25c.28-2.05.51-4.12.7-6.18,0-1.04.45-1.51.87-.29.28,1.27.63,2.52,1.07,3.76l.04.49c.2-.22,1.67-2.26,1.7-2.4.07-.32-1.9-3.97-2.24-4.23-.52-.19-.87-.47-1.04-.83.06-.58.02-1.05-.12-1.39.03-.26.01-.44.1-.7.15-.47.79-1.04,1.2-1.3,0-.05,0-.09.02-.13.26-.56,4.68-1.47,4.9-1.31.04.03.07.08.09.13Z"/>
  <path class="st7" d="M62.8,31.08c.61,0,.84.65,1.38.88s1.63.22,1.81,1c.19.84-.1.98-.37,1.59-.16.37-.98,2.47-1.18,2.53-.38.12-.75-.46-.81-.76-.14-.72-.13-1.75-.25-2.55-.14-.9-.42-1.78-.57-2.68Z"/>
  <path class="st4" d="M48.67,37.29c-.1,0-.2,0-.3,0-1.32.01-3.9.59-5.01,1.3-.27-.23.47-.59.6-.65,1.17-.55,2.31-.64,3.56-.75.28-.03,1.15-.4,1.25-.04.02.07-.1.13-.1.14Z"/>
  <path class="st2" d="M58.59,50.01l.2.15-.21.91c.09,2.43.03,4.84-.17,7.23l-6.96,6.59c-.35.21-1,.38-1.28.04-.47.02-.29-.53-.05-.78l5.71-5.39c.1-.38.09-.78-.02-1.19l.17-.35-.14-.28c.06-2.29.1-4.56.12-6.8l-.13-.19c-2.09-.16-4.21-.17-6.34-.04-.44.74-.83,1.51-1.15,2.33-.15.32-.34.48-.58.48l-.7-.7c.68-1.06.92-2.38,1.7-3.36,2.59.05,5.47-.45,7.94.47.65.24,1.24.6,1.88.88Z"/>
  <path class="st27" d="M45.17,34.08c.29-.06.63-.11.9,0,.09.03.09.06,0,.1-.94.07-2.2.2-3.14.31-1.28.15-2.01,1.24-2.81,2.1-.6.64-.67.43-.84,1.46-.49,2.93-.75,5.95-1.12,8.9-.16,1.3-.52,2.84-.6,4.11-.02.36-.05.63.15.95.26.41,1.92,2.01,2.35,2.36.16.13.36.31.56.34,1.76-.18,4.75.19,6.21-.9.37-.27.67-.74.95-1.1.2-.25.36-.37.55-.7.28-.49.74-2.13,1.14-2.26,1.84.05,3.96-.22,5.77-.05.72.07.89.23.95.95.07.91-.18,2.16-.21,3.11-.03,1.13-.02,2.33,0,3.46l-.23.39c-2.03,1.92-4.06,3.82-6.11,5.68-1.15.33-2.38.45-3.71.36l-8.78-.15c-.86.07-1.68.09-2.47.05-1.66-2.29-3.41-4.46-5.25-6.5-.24-.29-.49-.59-.58-.96-.08-.35-.03-1.5.29-1.68.06-.33.23-.55.25-.07.02.35,0,.73-.05,1.08l.14.1c.03.34.08.68.16,1.01.61.35,1.35,1.21,1.5,1.9l.32.2c1.18,1.42,2.35,2.85,3.53,4.29l13.72.02c.39-.05.73-.28,1.03-.53,1.45-1.55,3.04-3.03,4.65-4.51.3-.28.84-.74,1.2-.77.12-1.33.19-2.67.2-4.01-.34-.93-.27-2.15-.05-3.11l-.09.2h-5.9l-.12-.2.08.18c-.68,1.65-1.75,3.8-3.5,4.5-.44.18-1.17.43-1.54.12l-1.4.1c-.02.09-.05.09-.1,0l-1.4.1c-.02.09-.05.09-.1,0-.36.1-.73.06-1.1,0-.1.12-.21.11-.35,0-1.23-.91-2.41-1.99-3.25-3.25.41-3.72.84-7.46,1.46-11.1.03-.15.13-.27.23-.37.07-.19.11-.5-.03-.65l.13-.06-.18-.15c.03-.54.31-2.13.57-2.56.36-.6,2.53-2.57,3.22-2.58.03,0,.06.03.1.07.1-.05.16-.13.19-.24.75-.14,1.52-.2,2.28-.24l.24.19Z"/>
  <path class="st8" d="M57.99,38.19c-.35.8-1.34.59-2.14.72-1.42.22-3.05.64-4.44.77-.9.08-.96.06-1.04-.84-.17-1.8.5-2.18-1.06-3.55-1.13-1-1.71-1.22-3.25-1.1v-.1c.08-.04.18-.07.3-.1.06-.19.14-.19.2,0,.4-.09.8-.08,1.2,0l.22-.11c.38.04,2.11,1.49,2.38,1.9.22.34.31.51.2.91.1.86.1,1.73,0,2.6,2.25-.34,4.52-.73,6.81-1.18.11-2.55.12-5.13.05-7.75l.16-.18c-.93-.92-1.8-1.93-2.61-3.01l-.89-.8c-2.71-.16-5.41-.32-8.11-.5-2.74.2-5.6,1.11-8.02,2.2-1.98,2.19-4.09,4.58-5.96,7.01-.76,5.28-1.48,10.56-2.15,15.84-.08.33-.11.66-.1,1,.15.67.08,1.57-.2,2.2l-.1,1.1c.24.07.14.29-.1.2-.02-.4.01-.8,0-1.2h-.1s-.1.2-.1.2c-.18-1.75.01-3.62.5-5.31.38-3.75.92-7.47,1.49-11.18.14-.94.12-2.11.41-3,.33-1.03,3.15-3.89,4.01-4.91.45-.53,1.65-2.27,2.11-2.5,1-.51,2.71-.84,3.83-1.18,1.59-.49,2.95-1.25,4.74-.97l8.26.55c.41.42.86.82,1.26,1.25.55.59,2.07,2.3,2.21,3,.25,2.61-.17,5.44.05,8.02Z"/>
  <path class="st23" d="M29.14,54.42c-.03.38-.13,1.23-.11,1.55.04.62,1.1,1.5,1.51,2.01,1.31,1.63,2.6,3.28,3.91,4.91.17.21.09.48.45.55s.67-.1.99-.1c4.12-.09,8.82.35,12.83,0,.44-.04.82-.14,1.15-.45,1.95-1.98,4.06-3.79,6.11-5.66.01.5.27,1.2,0,1.66l-5.67,5.35c-.19.19-.34.44-.15.7-.11.12-.24.2-.39.25-4,.09-8.05-.02-12.1-.15-.73-.02-1.67-.17-2.34-.4-2.6-2.54-4.82-5.43-7.29-8.08.09-2.08.46-4.13.68-6.19.04-.35.06-.72.1-1.05.25.48.51-.02.8-.2-.18,1.76-.36,3.55-.5,5.31Z"/>
  <path class="st43" d="M35.35,64.64c.79-.08,1.57.16,2.35.2,1.96.11,3.96.05,5.92.09,2.16.05,4.42.32,6.56,0,.36-.05.8.05,1.15-.2l6.91-6.52c.23-1.04.11-2.1.15-3.16.05-1.34-.06-2.75,0-4.01.02-.41.25-.69.2-1.05.3.13,1.04.23,1.1.55.11.59.03,2.22,0,2.91-.03.79-.16,1.7-.21,2.5-.1,1.72.4,2.23-.94,3.56-1.15,1.15-2.55,2.47-3.76,3.56-1.82,1.64-3.07,2.89-5.66,3.06-3.17.2-7.02-.07-10.22-.21-.61-.03-1.32.07-1.91,0-.77-.09-1.15-.81-1.65-1.3Z"/>
  <path class="st7" d="M46.17,52.62c-.43-.19.12-.36.24-.51.78-.94,1.44-3.44,2.12-3.99.2-.16.46-.11.68-.23,1.26-.68,2.05-2.27,2.93-3.28.4-.46.74-.98,1.25-.45.47.48,1.56,2.37,1.6,3.02.01.24-.18.57-.05.74.08.11,2.19.8,2.56.95.81.34,1.58.81,2.41,1.1l-.2.15c-.98-.4-2.12-.93-3.08-1.28-2.05-.74-4.97-.39-7.19-.42-.19,0-.43-.12-.58-.09-.6.14-1.47,2.82-1.89,3.43-.06.08-.74.83-.78.86Z"/>
  <path class="st7" d="M42.06,40.6c.3-.06.18.14.21.33.05.27.07,1.07.13,1.17.1.16.87.42,1.1.7s1.78,3.15,1.95,3.56c.1.23.13.47.19.71l-1.93,2.83c-.23-.11-.13-.65-.2-.91-.15-.57-.44-1.18-.61-1.8-.24-.89-.18-1.47-.64-2.36-.04-.08-.04-.32-.21-.14-.16.17-.34,3.59-.41,4.15-.09.74-.67,2.37-.3,3.02.13.23.65.58.85.85.06.09.26.34.06.39-.49-.31-.83-.92-1.41-1.17.51-3.52.82-7.07,1.21-10.6.03-.25-.02-.51,0-.75Z"/>
  <path class="st11" d="M55.89,30.28c.13.07.21.17.28.3.5.89.31,4.21.17,5.32-.16,1.32-.66,1.51-1.83,1.92-.79.27-2.14.73-2.68-.06-.71.76-1.04.37-.99-1.17l-.15.1c-.03.09-.06.09-.1,0-.05-.54-.55-1.03-.95-1.41-.47-.44-1.28-1.03-1.86-1.3-.4-.08-.8-.09-1.2,0-.07,0-.13,0-.2,0-.4.03-.8.06-1.2.1-.82.04-1.91.12-2.7.3-.15-.08.03-.22.07-.12-.78.12-1.4.62-1.94,1.16-.99,1.1-1.96,1.93-3.27,2.59-.78,1.15-1.65,2.21-2.61,3.19-.35.39-1.04,1.28-.39,1.61l1.33-1.64c.12-.1.27-.08.4-.01.21.71.58,1.21,1.11,1.52.09.11.12.16.17.29.12.29.07,1.81-.29,1.94.12.35.16,1.04-.2,1.2l-.12.26c-1.57.46-2.94,1.32-4.1,2.61-.45.48-.95.66-1.49.54v-.5l-.09-.41c.37-3.41.77-6.79,1.35-10.17.4-2.34,1.36-3.78,2.89-5.52l1.79-2.45c1.08-1.31,1.59-1.53,3.07-2.14,1.66-.68,3.49-1.43,5.32-1.26,2.13.25,4.26.39,6.39.42,1.32.13,1.57.17,2.52,1.08.52.5,1.18,1.14,1.5,1.72Z"/>
  <path class="st29" d="M57.59,30.18c-.3.19-.63.04-1.01-.45-.5-.85-1.13-1.3-1.9-1.36l1.39,1.44c.17.26.15.58-.18.46-.87-.67-1.43-1.71-2.41-2.25s-3.72-.38-4.95-.46c-1.47-.09-3.04-.45-4.51-.3-.85.08-4.88,1.55-5.55,2.06-1.11.84-2.16,2.56-3.02,3.7-1.48,1.96-2.24,2.44-2.77,5.04-.72,3.51-1.13,7.37-1.53,10.94l-.07.95c-.5.59-.51-1.56-.34-1.77.09-.39.71-4.28.47-4.29-.68,3.61-1.09,7.27-1.23,10.96-.04.17-.12.32-.24.46.15.07.18.22.09.45.19.56.12.81-.19.75-.36-.56-.27-.42-.3-1.1.08-.05.07-.14.1-.2.03-.37.06-.74.1-1.1.05-.74.14-1.47.2-2.2-.01-.34.02-.67.1-1,.47-5.32,1.16-10.63,1.97-15.91,1.44-2.01,3.18-3.84,4.79-5.73,1.31-1.52.96-1.44,3-2.11,2.52-.82,4.64-1.64,7.32-1.5,2.39.12,4.8.51,7.21.51.95.61,1.57,1.58,2.26,2.45.37.46,1.02.99,1.2,1.55Z"/>
  <path class="st54" d="M31.14,58.43c-.08-.4-.27-.77-.57-1.09-.21-.51-.08-.87.48-.66l2.8,3.23c.21.56,1.66,2.09,2.18,2.23,0,0,.01-.05.02-.11l.19-.18c2.39-.16,4.8-.15,7.23.03,3.53.25,6.46-.54,8.82-3.2.6-.92,1.31-1.25,2.33-1.51.23-.2.45-.31.66-.35.12,0,.22.03.3.1.05.03.05.1,0,.2-.21.33-.81.67-1.1.95-1.01.97-2.04,1.9-3.06,2.85-.78.73-1.66,2.1-2.7,2.21l-13.8-.02c-1.33-1.49-2.55-3.11-3.78-4.69Z"/>
  <path class="st19" d="M38.66,40.29c-.11,1.5-.51,3.11-.69,4.56-.3,2.3-.54,4.6-.8,6.9.06.37,1.12,1.44,1.44,1.76.44.43,1.42,1.35,1.96,1.5.37.08.74.08,1.1,0,.03,0,.07,0,.1,0l1.4-.1s.07,0,.1,0l1.4-.1c1.77-.08,2.73-.92,3.71-2.35.26-.38,1.06-2.46,1.25-2.46h6.11c.27,0,.05.68.05.85-.02.75,0,1.51,0,2.26-.02,1.26-.08,2.53-.2,3.81-.21.15-.35.18-.3-.1-.11-.22-.14-.51-.1-.87-.2-1.6-.3-3.09.08-4.64l-.61.1c-1.41-.11-2.79-.04-4.11.2-1.13,1.69-2.13,3-3.93,4.18-.38.25-1.47.53-1.74.13l-1.8.1c-.13.2-.27.2-.4,0-.77.08-1.54.09-2.3,0l-.2.13c-.84-.58-1.86-1.33-2.3-2.24-.12-.31.15-.31.38-.2l-1.12-1.19c.07.3.01.5-.16.59-.2.2-.33.03-.46-.16-.36-.52-.08-3.53.05-4.26l.21-.09c0-.34.03-.67.1-1-.29-.23-.33-1.28,0-1.5.03-.41.17-.84.2-1.2.04-.03.08-.06.12-.08.34-.09.29,1.21.08,1.38-.07.36-.1.73-.1,1.1.12.24.05.78-.1,1l.02,1.06c0-.08,0-.14.08-.16.05-1.39.12-2.83.24-4.2.06-.68.57-4.82.81-5.09.07-.07.15-.12.25-.13.3-.46.31.19.2.5Z"/>
  <path class="st14" d="M37.05,44.9c.04-.49.21-1.52.08-1.93-.07-.23-.39-.24-.57-.43-.25-.25-.48-.9-.61-1.24-.15-.04-.16.02-.24.11-.25.25-1.21,1.65-1.42,1.69-1.36-.89.9-2.55,1.51-3.31.54-.67.89-1.57,1.61-2.09.4-.29.86-.37,1.3-.7,1.2-.92,2.35-2.7,3.91-2.8l-.15.2c-.35.08-.66.19-.95.4-.28.2-2.05,1.96-2.2,2.21-.22.36-.48,2.07-.55,2.6-.12.04-.22.11-.3.2-.48,1.48-.76,4.6-.99,6.27-.15,1.04-.2,2.1-.31,3.15-.11-.24-.14-.54-.1-.9,0-.38.08-.66.1-1,0-.37.03-.74.1-1.1,0-.38.13-1.1-.2-1.3Z"/>
  <path class="st34" d="M29.74,55.32c.24-.65.52-.27.56.23.14.3.42.91.74.87h.24c1.45,1.92,3.05,3.72,4.79,5.38l-.02.23c.12.09.31.05.3.2-.77.18-1.11-.49-1.6-.95-.57-.54-.83-.41-.96-1.35l-2.9-3.21c-.17-.08-.24.24-.22.34.04.33.89.88.48,1.37-.49-.64-1.07-1.22-1.5-1.9.22-.16,0-.5,0-.75,0-.21.1-.34.11-.45Z"/>
  <path class="st7" d="M55.59,57.13v-.2c0-.45,0-.9,0-1.36l.2-2.45c0,.83.15,3.44-.2,4.01Z"/>
  <path class="st41" d="M43.16,54.92c-.38.18-.96.1-1.4.1.38-.19.96-.1,1.4-.1Z"/>
  <path class="st41" d="M44.67,54.82c-.38.19-.96.1-1.4.1.38-.2.95-.08,1.4-.1Z"/>
  <path class="st41" d="M38.76,39.59c-.03.22.09.56-.1.7.01-.2,0-.4,0-.6l-.2.1c.05-.16.12-.48.3-.2Z"/>
  <path class="st3" d="M46.37,33.98c-.05.13-.19.1-.3.1-.3.01-.6-.01-.9,0,.3-.18.82-.1,1.2-.1Z"/>
  <path class="st41" d="M41.66,55.02c-.31.23-.76.09-1.1,0,.37,0,.74,0,1.1,0Z"/>
  <path class="st19" d="M57.59,30.18c.06.18.09.35.1.55.14,1.81-.02,3.8-.11,5.61-.02.35.08,1.8-.04,1.96-2.31.48-4.66.81-6.97,1.2,0-.07,0-.13,0-.2.05-.87.06-1.77,0-2.63-.02-.2.21.03.21-.14.62.13.14,1.47.44,1.46l.45-.35c.04-.17-.44-.42-.3-.55.31-.29.7.76.9.85.62.28,3.23-.53,3.61-1.1.2-.3.26-1.01.3-1.4.17-1.86.18-3.37-.3-5.16,0-.01.16-.1.06-.29-.13-.26-1.55-1.47-1.56-1.66,0-.23.66-.14.81-.11.98.21,1.4,1.73,2.4,1.96Z"/>
  <path class="st3" d="M47.77,33.98c-.4,0-.8,0-1.2,0,.29-.18.88-.15,1.2,0Z"/>
  <path class="st7" d="M36.85,46.11c-.03.41.03,1.02,0,1.5-.08.33-.11.66-.1,1-.07.91-.45,3.54-.09,4.25.08.15.23.19.29.26.32-.08.76.52.9.8.59.51,1.16,1.1,1.76,1.6.22.19.47.41.75.5.76.07,1.56.11,2.3,0,.13,0,.27,0,.4,0l1.8-.1c.78-.03,1.14.02,1.84-.42,1.08-.68,2-1.64,2.75-2.66.28-.38.64-1.24.99-1.41.26-.13,1.23-.2,1.58-.22.86-.05,1.74.03,2.61,0,.23,0,.76-.24.83.05.04.17-.27,1.34-.29,1.69-.04.94.16,2.14.21,3.1.01.32.04.48-.1.76-.38.75-1.37.63-2,1.06-.37.25-.58.69-.86.94-.75.68-1.98,1.82-2.82,2.29-2.98,1.63-8.31.7-11.71.81-.59.02-1.23.19-1.85.1-1.14-.83-4.07-4.36-5.01-5.61-.39-.02-.78-.79-.8-1.21.17-1.74.39-3.48.67-5.22.15-.09.23-.25.23-.48.13-.32.26-.07.5-.14.75-.23,2.4-2.1,3.34-2.58.54-.28,1.29-.46,1.87-.68Z"/>
  <path class="st13" d="M29.74,55.32c.31-3.53.44-8.04,1.25-11.42.05-.19.09-.44.2-.6.18.22.25.68.26.95.04,1.53-.55,3.43-.61,5.01,0,.17-.01.6.2.65l.1-.9c-.02.16.01.34,0,.5-.08,1.85-.71,4.05-.7,5.86,0,.3.41.79.6,1.05.04.27-.08.26-.25.1-.35-.33-.76-.91-.75-1.41l-.3.2Z"/>
  <path class="st41" d="M36.95,53.12l-.1-.9c.21-.21.95.81,1.1.95.49.48,1.89,1.83,2.42,2.09.76.37,1.83.01,2.65-.04,1.35-.08,2.55.14,3.79-.62.2-.12,1.05-.88,1.12-.88.12,0,.14.12.05.25-.25.37-1.38,1.35-1.8,1.5-.84.3-2.6.21-3.55.25-.59.02-1.67.26-2.23.02-.63-.27-1.72-1.58-2.34-1.89-.13-.06-.18.06-.19.06-.36-.08-.67-.52-.9-.8Z"/>
  <path class="st41" d="M42.66,56.02c-.1.17-.38.1-.55.1-.55,0-1.26.08-1.75-.1.77,0,1.54,0,2.3,0Z"/>
  <path class="st41" d="M37.15,49.21c.01.19.03.43-.2.5l.1-1.4c0,.37.08.64.1.9Z"/>
  <path class="st41" d="M44.87,55.92c-.53.19-1.23.1-1.8.1.54-.2,1.22-.08,1.8-.1Z"/>
  <path class="st41" d="M37.15,47.31c.05-.35-.12-.83.1-1.1,0,.42-.08.76-.1,1.1Z"/>
  <path class="st41" d="M36.75,48.61c.04-.31-.11-.76.1-1-.02.34-.08.7-.1,1Z"/>
</svg>